<svg id="Слой_1" data-name="Слой 1" xmlns="http://www.w3.org/2000/svg" viewBox="0 0 110 110"><defs><style>.cls-1,.cls-2{fill:none;stroke:#000;isolation:isolate;}.cls-1{opacity:0.3;}.cls-2{opacity:0.5;}.cls-3{fill:#4eacff;}</style></defs><title>ac</title><circle class="cls-1" cx="55" cy="55" r="54.5"/><path class="cls-2" d="M11,56A45,45,0,1,0,56,11"/><path class="cls-3" d="M77.57,61.41,65.16,58.09a1,1,0,0,1-.47-.29L57,49.23a2.87,2.87,0,0,0-2.14-.95H43.39a2.89,2.89,0,0,0-2.47,1.4L36,57.89a1,1,0,0,1-.39.37l-8,4A2.87,2.87,0,0,0,26,64.87V73a2.88,2.88,0,0,0,1.81,2.68l3.59,1.44a1,1,0,0,0,1.31-.9,5.75,5.75,0,1,1,11.51,0,1,1,0,0,0,1,1h16.3a1,1,0,0,0,1-1,5.75,5.75,0,1,1,11.51,0,1,1,0,0,0,1,1l.23,0,2.39-.6a2.89,2.89,0,0,0,2.18-2.8V64.2A2.88,2.88,0,0,0,77.57,61.41ZM49,50.21h5.86a1,1,0,0,1,.71.32l6.62,7.38H49ZM30.92,74.82l-2.4-1a1,1,0,0,1-.6-.89v-.62h3.91A7.65,7.65,0,0,0,30.92,74.82Zm16.18.41h-1a7.66,7.66,0,0,0-12.68-4.81H27.92V64.87a1,1,0,0,1,.53-.86l8-4c.08,0,.14-.1.21-.15H47.1Zm0-17.32H38.24l4.32-7.23a1,1,0,0,1,.82-.47H47.1Zm16.3,12.29a7.69,7.69,0,0,0-2.82,5H49V59.83H63.41Zm14.39,3.53a1,1,0,0,1-.73.93L75.78,75a7.65,7.65,0,0,0-.94-2.64h3Zm0-3.31H73.27a7.61,7.61,0,0,0-7.94-1.36V60.12l11.76,3.15a1,1,0,0,1,.55.41H74.91a1,1,0,0,0-1,1v3.85a1,1,0,0,0,1,1h2.88Zm0-2.89H75.87V65.6h1.92Z"/><path class="cls-3" d="M38.48,71.38a4.81,4.81,0,1,0,4.8,4.81A4.8,4.8,0,0,0,38.48,71.38Zm0,7.7a2.89,2.89,0,1,1,2.88-2.89A2.88,2.88,0,0,1,38.48,79.08Z"/><path class="cls-3" d="M68.2,71.38A4.81,4.81,0,1,0,73,76.19,4.8,4.8,0,0,0,68.2,71.38Zm0,7.7a2.89,2.89,0,1,1,2.88-2.89A2.88,2.88,0,0,1,68.2,79.08Z"/><path class="cls-3" d="M52.86,62.71H50.94v1.92h1.92Z"/><path class="cls-3" d="M80.08,44.36a7.21,7.21,0,1,0-10.91-6.18c0,.18,0,.37,0,.55a6.74,6.74,0,1,0-.86,13.4,3.81,3.81,0,0,0-.12,1,3.85,3.85,0,0,0,3,3.76,2.88,2.88,0,1,0,4.88-2.8,5.76,5.76,0,0,0,4-9.69Zm-2.73.06a1,1,0,0,0,.43.54,3.84,3.84,0,0,1-2.68,7.09A1,1,0,0,0,74,53s0,.08,0,0a1.92,1.92,0,0,1-.15.74,1,1,0,0,0,.52,1.26h0A1,1,0,1,1,73,56a1,1,0,0,0-1-1,1.93,1.93,0,0,1-1.1-3.5,1,1,0,0,0,.19-.18,1,1,0,0,0,.28-.05l.27-.08a1,1,0,0,0,.69-1.35l-.06-.11A1,1,0,0,0,71,49.29l-.13.07-.3.18a1,1,0,0,0-.27.23,1,1,0,0,0-.33.07A4.81,4.81,0,1,1,70,41a1,1,0,0,0,1.28-1.18A5.28,5.28,0,1,1,78,43.22,1,1,0,0,0,77.35,44.42Z"/><path class="cls-3" d="M64.36,30a2.89,2.89,0,1,0,2.88,2.89A2.88,2.88,0,0,0,64.36,30Zm0,3.85a1,1,0,1,1,1-1A1,1,0,0,1,64.36,33.85Z"/><path class="cls-3" d="M81.15,55a1.44,1.44,0,1,0,1.44,1.44A1.44,1.44,0,0,0,81.15,55Zm0,1.92a.48.48,0,1,1,.48-.48A.48.48,0,0,1,81.15,56.94Z"/><path class="cls-3" d="M38.47,61.75H35.6a1,1,0,0,0-1,1V65.6a1,1,0,0,0,1,1h2.88a1,1,0,0,0,1-1V62.72A1,1,0,0,0,38.47,61.75Zm-1,2.89h-1v-1h1Z"/></svg>