<svg id="Слой_1" data-name="Слой 1" xmlns="http://www.w3.org/2000/svg" viewBox="0 0 110 110"><defs><style>.cls-1,.cls-2{fill:none;stroke:#000;isolation:isolate;}.cls-1{opacity:0.3;}.cls-2{opacity:0.5;}.cls-3{fill:#4eacff;}</style></defs><title>acco</title><circle class="cls-1" cx="55" cy="55" r="54.5"/><path class="cls-2" d="M11,56A45,45,0,1,0,56,11"/><path class="cls-3" d="M79.29,38.58l-2.37-3.13a.82.82,0,0,0-1.15-.11l-.11.11-2.37,3.13a.78.78,0,0,0-.16.47V75.86a3.16,3.16,0,0,0,6.33,0V39A.78.78,0,0,0,79.29,38.58ZM77.87,75.86a1.58,1.58,0,0,1-3.16,0V74.3h3.16Zm0-3.13H74.71V71.16h3.16Zm0-3.13H74.71V41.4h3.16Zm0-29.77H74.71v-.52l1.58-2.09,1.58,2.09Z"/><path class="cls-3" d="M70.76,32H36a.79.79,0,0,0-.79.78V46.18A3.93,3.93,0,0,0,32,50V75.08A3.94,3.94,0,0,0,36,79H64.43a.8.8,0,0,0,.56-.23l6.33-6.27a.78.78,0,0,0,.16-.23l0-.07a.78.78,0,0,0,0-.2s0,0,0,0V32.78A.79.79,0,0,0,70.76,32Zm-15,43.08a2.36,2.36,0,0,1-2.37,2.35H36a2.36,2.36,0,0,1-2.37-2.35V50A2.36,2.36,0,0,1,36,47.67h17.4A2.36,2.36,0,0,1,55.73,50ZM45.45,41.4v4.7H39.91V41.4Zm-5.54-1.57V36.7h5.54v3.13ZM52.56,41.4v4.7H47V41.4ZM47,39.83V36.7h5.54v3.13Zm7.12,6.34V41.4h5.54v11H57.31V50A3.93,3.93,0,0,0,54.15,46.18Zm0-6.34V36.7h5.54v3.13ZM65.22,76.33V72.73h3.63ZM70,71.17H64.43a.79.79,0,0,0-.79.78v5.48H56.5a3.85,3.85,0,0,0,.81-2.35V53.93H67.59a.79.79,0,0,0,.79-.78V35.92a.79.79,0,0,0-.79-.78H39.12a.79.79,0,0,0-.79.78V46.1H36.75V33.57H70ZM66.8,41.4v11H61.26v-11Zm-5.54-1.57V36.7H66.8v3.13Z"/><path class="cls-3" d="M53.35,50H36a.79.79,0,0,0-.79.78v4.7a.79.79,0,0,0,.79.78h17.4a.79.79,0,0,0,.79-.78V50.8A.79.79,0,0,0,53.35,50Zm-.79,4.7H36.74V51.58H52.56Z"/><path class="cls-3" d="M54.14,64.12H49.4a.79.79,0,0,0-.79.78v9.4a.79.79,0,0,0,.79.78h4.75a.79.79,0,0,0,.79-.78V64.9A.79.79,0,0,0,54.14,64.12Zm-.79,9.4H50.19V65.69h3.16Z"/><path class="cls-3" d="M54.14,57.85H49.4a.79.79,0,0,0-.79.78v3.13a.79.79,0,0,0,.79.78h4.75a.79.79,0,0,0,.79-.78V58.63A.79.79,0,0,0,54.14,57.85ZM53.35,61H50.19V59.41h3.16Z"/><path class="cls-3" d="M47,64.12H42.28a.79.79,0,0,0-.79.78V68a.79.79,0,0,0,.79.78H47a.79.79,0,0,0,.79-.78V64.9A.79.79,0,0,0,47,64.12Zm-.79,3.13H43.07V65.68h3.16Z"/><path class="cls-3" d="M47,57.85H42.28a.79.79,0,0,0-.79.78v3.13a.79.79,0,0,0,.79.78H47a.79.79,0,0,0,.79-.78V58.63A.79.79,0,0,0,47,57.85ZM46.24,61H43.07V59.42h3.16Z"/><path class="cls-3" d="M39.91,64.12H35.17a.79.79,0,0,0-.79.78V68a.79.79,0,0,0,.79.78h4.75A.79.79,0,0,0,40.7,68V64.9A.79.79,0,0,0,39.91,64.12Zm-.79,3.13H36V65.68h3.16Z"/><path class="cls-3" d="M39.91,57.85H35.17a.79.79,0,0,0-.79.78v3.13a.79.79,0,0,0,.79.78h4.75a.79.79,0,0,0,.79-.78V58.63A.79.79,0,0,0,39.91,57.85ZM39.12,61H36V59.42h3.16Z"/><path class="cls-3" d="M47,70.38H42.28a.79.79,0,0,0-.79.78V74.3a.79.79,0,0,0,.79.78H47a.79.79,0,0,0,.79-.78V71.17A.79.79,0,0,0,47,70.38Zm-.79,3.13H43.07V71.95h3.16Z"/><path class="cls-3" d="M39.91,70.38H35.17a.79.79,0,0,0-.79.78V74.3a.79.79,0,0,0,.79.78h4.75a.79.79,0,0,0,.79-.78V71.17A.79.79,0,0,0,39.91,70.38Zm-.79,3.13H36V71.95h3.16Z"/></svg>