<svg id="Слой_1" data-name="Слой 1" xmlns="http://www.w3.org/2000/svg" viewBox="0 0 110 110"><defs><style>.cls-1,.cls-2{fill:none;stroke:#000;isolation:isolate;}.cls-1{opacity:0.3;}.cls-2{opacity:0.5;}.cls-3{fill:#4eacff;}</style></defs><title>doc</title><circle class="cls-1" cx="55" cy="55" r="54.5"/><path class="cls-2" d="M11,56A45,45,0,1,0,56,11"/><path class="cls-3" d="M60.88,49.59l-2.38-.79L56.06,46.4a.86.86,0,0,0-.61-.25H47.73a.86.86,0,0,0-.61.25l-2.4,2.38-3.2.79a.85.85,0,0,0-.65.83v4.25a.85.85,0,0,0,.86.85H43.6a2.57,2.57,0,0,0,4.83,0H53.9a2.57,2.57,0,0,0,4.83,0h1.87a.85.85,0,0,0,.86-.85V50.4A.85.85,0,0,0,60.88,49.59ZM46,55.5a.85.85,0,1,1,.86-.85A.85.85,0,0,1,46,55.5Zm10.3,0a.85.85,0,1,1,.86-.85A.85.85,0,0,1,56.32,55.5Zm3.43-1.7h-1l0-.08-.06-.14a2.57,2.57,0,0,0-.15-.27l-.08-.12a2.6,2.6,0,0,0-.24-.28l-.05-.06a2.62,2.62,0,0,0-.34-.28l-.11-.06-.29-.16-.14-.06-.31-.1-.14,0a2.37,2.37,0,0,0-.94,0l-.14,0-.31.1-.14.06-.29.16-.11.06a2.62,2.62,0,0,0-.34.28l-.05.06a2.59,2.59,0,0,0-.24.28l-.08.12a2.59,2.59,0,0,0-.15.27l-.06.14,0,.09H48.44l0-.09-.06-.14a2.59,2.59,0,0,0-.15-.27l-.08-.12a2.59,2.59,0,0,0-.24-.28l-.05-.06a2.62,2.62,0,0,0-.34-.28l-.11-.06-.29-.16-.14-.06-.31-.1-.14,0a2.37,2.37,0,0,0-.94,0l-.14,0-.31.1-.14.06-.29.16-.11.06a2.62,2.62,0,0,0-.34.28l-.05.06a2.59,2.59,0,0,0-.24.28l-.08.12a2.58,2.58,0,0,0-.15.27l-.06.14,0,.09h-1V51.06l2.78-.69a.86.86,0,0,0,.4-.22l2.32-2.3h7l2.32,2.3a.87.87,0,0,0,.34.21l2,.66Z"/><path class="cls-3" d="M76.66,48.95,74.09,46.4a.86.86,0,0,0-1.21,0l-4.54,4.5V39.35A4.28,4.28,0,0,0,64,35.1H54.6V33.4a3.43,3.43,0,0,0-6.87,0v1.7H38.29A4.28,4.28,0,0,0,34,39.35v37.4A4.28,4.28,0,0,0,38.29,81H64a4.28,4.28,0,0,0,4.29-4.25V58.4l8.33-8.25A.84.84,0,0,0,76.66,48.95ZM64,36.8a2.56,2.56,0,0,1,2.57,2.55V52.6L64.9,54.3V39.35A.85.85,0,0,0,64,38.5H59.91l-.64-1.7ZM56.57,66.3a.85.85,0,0,0,.25.16l.06,0a.87.87,0,0,0,.29.06h0l.21,0,3.43-.85a.86.86,0,0,0,.4-.22l2-1.95v5.6h-6a.85.85,0,0,0-.86.85v6H39.15V40.2h2.62l-.85,2.25a.85.85,0,0,0,.5,1.09.87.87,0,0,0,.3.05H60.61a.85.85,0,0,0,.86-.85.84.84,0,0,0-.05-.3l-.85-2.25h2.62V56l-5.76,5.7a.85.85,0,0,0-.23.39l-.86,3.4A.84.84,0,0,0,56.57,66.3ZM63.18,72v3.9H59.24ZM58,74.7V70.8H62ZM43.82,39.65l1.08-2.85h3.7a.85.85,0,0,0,.86-.85V33.4a1.72,1.72,0,0,1,3.43,0v2.55a.85.85,0,0,0,.86.85h3.7l1.08,2.85.85,2.25H43l.85-2.25Zm22.8,37.1A2.56,2.56,0,0,1,64,79.3H38.29a2.56,2.56,0,0,1-2.57-2.55V39.35a2.56,2.56,0,0,1,2.57-2.55h4.77l-.64,1.7H38.29a.85.85,0,0,0-.86.85v37.4a.85.85,0,0,0,.86.85H64a.85.85,0,0,0,.86-.85V61.8l1.72-1.7Zm.25-19.3-3.43,3.4-3.26,3.23-1.81.45.45-1.8L64.65,57l3.43-3.4,2.83-2.8,1.36,1.35Zm6.61-6.55-1.36-1.35,1.36-1.35,1.36,1.35Z"/><path class="cls-3" d="M56.32,58.9H41.73v1.7H56.32Z"/><path class="cls-3" d="M53.74,62.3h-12V64h12Z"/><path class="cls-3" d="M53.74,65.7h-12v1.7h12Z"/><path class="cls-3" d="M53.74,69.1h-12v1.7h12Z"/></svg>