<svg width="46" height="62" viewBox="0 0 46 62" fill="none" xmlns="http://www.w3.org/2000/svg">
<path d="M19.1667 38.75C29.7357 38.75 38.3333 30.059 38.3333 19.375C38.3333 8.69102 29.7357 0 19.1667 0C8.59756 0 0 8.69102 0 19.375C0 30.059 8.59756 38.75 19.1667 38.75ZM19.1667 2.58329C28.3257 2.58329 35.7778 10.1163 35.7778 19.375C35.7778 28.6337 28.3257 36.1667 19.1667 36.1667C10.0076 36.1667 2.55551 28.6336 2.55551 19.375C2.55551 10.1164 10.0076 2.58329 19.1667 2.58329Z" fill="white"/>
<path d="M44.7222 49.0836C44.0159 49.0836 43.4444 49.6613 43.4444 50.3753V57.5941L26.459 40.4204C26.2194 40.1783 25.895 40.042 25.5555 40.042C25.2162 40.042 24.8916 40.1783 24.6521 40.4204L15.3334 49.8404L2.1812 36.5454C1.68202 36.0408 0.87343 36.0408 0.374379 36.5454C-0.124793 37.05 -0.124793 37.8674 0.374379 38.3719L14.4299 52.5802C14.9291 53.0848 15.7376 53.0848 16.2367 52.5802L25.5555 43.1601L41.634 59.4169H34.5C33.7937 59.4169 33.2222 59.9946 33.2222 60.7086C33.2222 61.4226 33.7937 62.0003 34.5 62.0003H44.7222C45.4285 62.0003 46 61.4226 46 60.7086V50.3753C46 49.6613 45.4285 49.0836 44.7222 49.0836Z" fill="white"/>
<path d="M14.8516 28V10.8203H21.332C22.4727 10.8203 23.3438 10.875 23.9453 10.9844C24.7891 11.125 25.4961 11.3945 26.0664 11.793C26.6367 12.1836 27.0938 12.7344 27.4375 13.4453C27.7891 14.1562 27.9648 14.9375 27.9648 15.7891C27.9648 17.25 27.5 18.4883 26.5703 19.5039C25.6406 20.5117 23.9609 21.0156 21.5312 21.0156H17.125V28H14.8516ZM17.125 18.9883H21.5664C23.0352 18.9883 24.0781 18.7148 24.6953 18.168C25.3125 17.6211 25.6211 16.8516 25.6211 15.8594C25.6211 15.1406 25.4375 14.5273 25.0703 14.0195C24.7109 13.5039 24.2344 13.1641 23.6406 13C23.2578 12.8984 22.5508 12.8477 21.5195 12.8477H17.125V18.9883Z" fill="white"/>
<rect x="12" y="23" width="8" height="2" fill="white"/>
</svg>
