<svg width="865" height="76" viewBox="0 0 865 76" fill="none" xmlns="http://www.w3.org/2000/svg">
<path opacity="0.3" d="M429.015 1V1.5V1ZM1 74.9998C1.13645 75.4808 1.13645 75.4808 1.13646 75.4808C1.13646 75.4808 1.13647 75.4808 1.13648 75.4808C1.1365 75.4808 1.13653 75.4808 1.13657 75.4808C1.13666 75.4808 1.1368 75.4807 1.13698 75.4807C1.13734 75.4806 1.13789 75.4804 1.13863 75.4802C1.1401 75.4798 1.14232 75.4792 1.14528 75.4783C1.15121 75.4766 1.16012 75.4741 1.172 75.4707C1.19576 75.464 1.23138 75.4539 1.27876 75.4406C1.37352 75.4138 1.51531 75.3738 1.70325 75.321C2.07913 75.2153 2.6396 75.0582 3.3776 74.8526L3.10927 73.8893C2.37047 74.0951 1.80923 74.2524 1.43259 74.3583C1.24427 74.4113 1.1021 74.4513 1.00696 74.4782C0.959398 74.4916 0.923589 74.5018 0.89965 74.5086C0.88768 74.5119 0.878678 74.5145 0.872656 74.5162C0.869645 74.5171 0.86738 74.5177 0.865861 74.5181C0.865102 74.5183 0.864529 74.5185 0.864144 74.5186C0.863951 74.5187 0.863805 74.5187 0.863706 74.5187C0.863656 74.5187 0.863618 74.5188 0.863592 74.5188C0.863579 74.5188 0.863568 74.5188 0.863561 74.5188C0.863553 74.5188 0.863548 74.5188 1 74.9998ZM8.21787 73.5157C9.6228 73.1305 11.2266 72.6929 13.0199 72.2068L12.7583 71.2416C10.964 71.728 9.35929 72.1658 7.95343 72.5513L8.21787 73.5157ZM17.7466 70.9321C19.2296 70.5341 20.8039 70.1133 22.4663 69.6712L22.2092 68.7048C20.5462 69.1471 18.9711 69.5681 17.4874 69.9663L17.7466 70.9321ZM27.3324 68.3826C28.8504 67.9824 30.4272 67.5682 32.061 67.1409L31.808 66.1734C30.1735 66.6009 28.596 67.0152 27.0775 67.4156L27.3324 68.3826ZM36.8774 65.8862C38.4255 65.4846 40.0172 65.0731 41.6512 64.6524L41.4019 63.684C39.7672 64.1049 38.1749 64.5165 36.6263 64.9183L36.8774 65.8862ZM46.4721 63.416C48.0252 63.0192 49.612 62.6152 51.2315 62.2045L50.9857 61.2352C49.3656 61.646 47.7782 62.0502 46.2245 62.4471L46.4721 63.416ZM56.1026 60.9738C57.65 60.5844 59.2242 60.1895 60.8245 59.7897L60.5821 58.8195C58.9812 59.2195 57.4064 59.6145 55.8585 60.0041L56.1026 60.9738ZM65.7029 58.5753C67.2633 58.1883 68.8464 57.7971 70.4513 57.4019L70.2123 56.4309C68.6068 56.8262 67.0232 57.2175 65.4622 57.6047L65.7029 58.5753ZM75.2566 56.2232C76.8597 55.8315 78.4829 55.4362 80.1257 55.0378L79.8899 54.0659C78.2466 54.4645 76.6228 54.8599 75.0192 55.2518L75.2566 56.2232ZM84.8661 53.8922C86.4636 53.5075 88.0783 53.1202 89.7096 52.7303L89.4772 51.7577C87.8453 52.1477 86.23 52.5352 84.632 52.9199L84.8661 53.8922ZM94.5385 51.5807C96.1149 51.2069 97.7058 50.831 99.3109 50.4532L99.0817 49.4798C97.4762 49.8577 95.8847 50.2337 94.3077 50.6077L94.5385 51.5807ZM104.168 49.3145C105.762 48.9422 107.368 48.5684 108.988 48.1932L108.762 47.219C107.142 47.5944 105.535 47.9683 103.94 48.3407L104.168 49.3145ZM113.775 47.0882C115.382 46.7187 117.001 46.3479 118.631 45.976L118.409 45.0011C116.778 45.373 115.158 45.7439 113.55 46.1137L113.775 47.0882ZM123.464 44.8784C125.051 44.5193 126.649 44.1593 128.256 43.7987L128.037 42.823C126.429 43.1837 124.831 43.5438 123.243 43.903L123.464 44.8784ZM133.106 42.715C134.716 42.3567 136.335 41.998 137.963 41.6388L137.748 40.6623C136.119 41.0216 134.5 41.3805 132.889 41.7388L133.106 42.715ZM142.756 40.5861C144.362 40.2349 145.976 39.8834 147.598 39.5318L147.386 38.5545C145.764 38.9062 144.149 39.2578 142.543 39.6092L142.756 40.5861ZM152.485 38.4771C154.076 38.1355 155.673 37.7938 157.278 37.4523L157.069 36.4742C155.464 36.8159 153.866 37.1577 152.275 37.4994L152.485 38.4771ZM162.111 36.4282C163.729 36.087 165.353 35.746 166.984 35.4054L166.779 34.4266C165.148 34.7673 163.523 35.1084 161.905 35.4497L162.111 36.4282ZM171.82 34.4001C173.424 34.0685 175.033 33.7372 176.648 33.4066L176.447 32.4269C174.832 32.7577 173.222 33.0891 171.618 33.4208L171.82 34.4001ZM181.508 32.4163C183.128 32.0879 184.753 31.7602 186.384 31.4332L186.187 30.4527C184.556 30.7798 182.93 31.1077 181.309 31.4363L181.508 32.4163ZM191.208 30.4707C192.821 30.1506 194.438 29.8315 196.06 29.5132L195.867 28.5319C194.245 28.8503 192.627 29.1696 191.013 29.4898L191.208 30.4707ZM200.937 28.5614C202.551 28.2482 204.169 27.936 205.79 27.625L205.602 26.6429C203.98 26.9541 202.361 27.2664 200.746 27.5797L200.937 28.5614ZM210.638 26.7007C212.257 26.3938 213.88 26.0881 215.506 25.7837L215.322 24.8008C213.695 25.1053 212.072 25.4112 210.452 25.7182L210.638 26.7007ZM220.391 24.8749C222.004 24.5767 223.621 24.2798 225.24 23.9844L225.06 23.0007C223.44 23.2962 221.823 23.5932 220.209 23.8915L220.391 24.8749ZM230.104 23.1028C231.728 22.8104 233.355 22.5196 234.983 22.2305L234.808 21.2459C233.179 21.5352 231.552 21.8261 229.927 22.1186L230.104 23.1028ZM239.861 21.3708C241.481 21.0872 243.103 20.8054 244.727 20.5254L244.557 19.5399C242.932 19.8201 241.309 20.102 239.688 20.3857L239.861 21.3708ZM249.604 19.6909C251.232 19.4146 252.86 19.1402 254.491 18.8678L254.326 17.8815C252.695 18.154 251.065 18.4285 249.437 18.705L249.604 19.6909ZM259.37 18.0591C260.996 17.7918 262.623 17.5267 264.251 17.2636L264.092 16.2764C262.463 16.5396 260.835 16.8049 259.208 17.0723L259.37 18.0591ZM269.137 16.4812C270.767 16.2226 272.397 15.9663 274.027 15.7123L273.873 14.7242C272.242 14.9783 270.611 15.2348 268.98 15.4936L269.137 16.4812ZM278.918 14.9577C280.548 14.7086 282.179 14.4619 283.81 14.2177L283.662 13.2287C282.03 13.473 280.398 13.7199 278.767 13.9692L278.918 14.9577ZM288.702 13.4929C290.334 13.2535 291.967 13.0168 293.599 12.7828L293.457 11.793C291.824 12.0271 290.19 12.264 288.557 12.5034L288.702 13.4929ZM298.503 12.0877C300.137 11.8588 301.77 11.6327 303.403 11.4095L303.267 10.4187C301.634 10.642 299.999 10.8683 298.364 11.0974L298.503 12.0877ZM308.297 10.7487C309.936 10.5303 311.573 10.315 313.21 10.1028L313.081 9.11106C311.444 9.32344 309.805 9.53894 308.165 9.75747L308.297 10.7487ZM318.123 9.47436C319.76 9.2681 321.395 9.06507 323.028 8.86536L322.906 7.87275C321.272 8.07261 319.636 8.2758 317.998 8.48221L318.123 9.47436ZM327.925 8.27578C329.572 8.08076 331.216 7.88923 332.859 7.70129L332.745 6.70778C331.101 6.89587 329.456 7.08755 327.808 7.28272L327.925 8.27578ZM337.778 7.14834C339.415 6.96767 341.05 6.79069 342.682 6.61749L342.576 5.62308C340.943 5.79643 339.307 5.97356 337.668 6.15437L337.778 7.14834ZM347.604 6.10586C349.253 5.93799 350.9 5.7741 352.543 5.61432L352.446 4.61901C350.802 4.77895 349.154 4.94298 347.502 5.111L347.604 6.10586ZM357.463 5.14732C359.099 4.99582 360.732 4.84851 362.361 4.7055L362.273 3.70933C360.643 3.85248 359.008 3.99994 357.37 4.15158L357.463 5.14732ZM367.319 4.28253C368.97 4.1459 370.616 4.01382 372.258 3.88642L372.181 2.88941C370.537 3.01696 368.889 3.14917 367.237 3.28594L367.319 4.28253ZM377.17 3.51831C378.819 3.39915 380.464 3.28487 382.103 3.17557L382.036 2.17778C380.395 2.28721 378.749 2.40162 377.098 2.52091L377.17 3.51831ZM387.065 2.85908C388.713 2.75876 390.356 2.66366 391.994 2.57389L391.939 1.57539C390.3 1.66527 388.655 1.76049 387.004 1.86093L387.065 2.85908ZM396.893 2.32042C398.562 2.23933 400.224 2.16398 401.88 2.09449L401.838 1.09537C400.18 1.16496 398.515 1.24041 396.845 1.3216L396.893 2.32042ZM406.826 1.90373C408.468 1.84608 410.103 1.79442 411.731 1.74886L411.703 0.749255C410.073 0.794879 408.436 0.846617 406.791 0.904344L406.826 1.90373ZM416.701 1.62842C418.363 1.59445 420.018 1.56711 421.664 1.54653L421.652 0.546612C420.003 0.567226 418.346 0.59461 416.68 0.628627L416.701 1.62842ZM426.578 1.5052C427.392 1.50174 428.205 1.5 429.015 1.5V0.5C428.203 0.5 427.39 0.501743 426.573 0.505213L426.578 1.5052ZM429.015 1.5C429.838 1.5 430.663 1.50174 431.491 1.5052L431.495 0.505208C430.666 0.501742 429.84 0.5 429.015 0.5V1.5ZM436.482 1.54649C438.154 1.56705 439.835 1.59436 441.524 1.62829L441.544 0.62849C439.852 0.594509 438.169 0.567154 436.494 0.546562L436.482 1.54649ZM446.572 1.74862C448.225 1.79413 449.886 1.84574 451.554 1.90333L451.588 0.903929C449.918 0.84626 448.255 0.794576 446.599 0.748998L446.572 1.74862ZM456.578 2.09391C458.26 2.16334 459.949 2.23861 461.644 2.31962L461.691 1.32076C459.994 1.23965 458.304 1.16428 456.62 1.09476L456.578 2.09391ZM466.621 2.57288C468.284 2.66257 469.953 2.75758 471.628 2.85781L471.687 1.8596C470.011 1.75925 468.34 1.66413 466.675 1.57433L466.621 2.57288ZM476.668 3.17401C478.333 3.28323 480.004 3.39743 481.679 3.51649L481.75 2.51901C480.073 2.39982 478.4 2.2855 476.733 2.17616L476.668 3.17401ZM486.669 3.88429C488.337 4.01159 490.009 4.14356 491.686 4.28008L491.767 3.28338C490.089 3.14672 488.415 3.01462 486.745 2.88719L486.669 3.88429ZM496.724 4.70275C498.378 4.84566 500.037 4.99285 501.699 5.14424L501.79 4.14836C500.126 3.99683 498.466 3.8495 496.81 3.70646L496.724 4.70275ZM506.697 5.61088C508.366 5.77055 510.039 5.93431 511.715 6.10206L511.815 5.10704C510.137 4.93914 508.463 4.77523 506.792 4.61542L506.697 5.61088ZM516.715 6.61339C518.373 6.78647 520.034 6.96333 521.698 7.14387L521.805 6.14971C520.141 5.96902 518.479 5.79202 516.819 5.61879L516.715 6.61339ZM526.695 7.69646C528.364 7.88428 530.034 8.07568 531.707 8.27057L531.823 7.27729C530.149 7.08225 528.477 6.8907 526.807 6.70274L526.695 7.69646ZM536.684 8.85986C538.343 9.05945 540.004 9.26236 541.666 9.46851L541.789 8.47611C540.125 8.26982 538.463 8.06675 536.803 7.86702L536.684 8.85986ZM546.659 10.0965C548.321 10.3087 549.985 10.5239 551.65 10.7422L551.78 9.75067C550.114 9.53224 548.449 9.31685 546.785 9.10458L546.659 10.0965ZM556.623 11.4026C558.282 11.6257 559.941 11.8517 561.602 12.0805L561.738 11.0899C560.077 10.8609 558.416 10.6348 556.756 10.4115L556.623 11.4026ZM566.584 12.7753C568.242 13.0092 569.901 13.2458 571.56 13.4851L571.703 12.4953C570.043 12.2559 568.383 12.0192 566.724 11.7851L566.584 12.7753ZM576.531 14.2096C578.188 14.4537 579.845 14.7003 581.501 14.9493L581.65 13.9604C579.992 13.7112 578.334 13.4645 576.676 13.2203L576.531 14.2096ZM586.471 15.7036C588.128 15.9575 589.784 16.2137 591.44 16.4722L591.594 15.4842C589.938 15.2256 588.28 14.9692 586.623 14.7151L586.471 15.7036ZM596.405 17.2544C598.059 17.5174 599.713 17.7824 601.365 18.0496L601.525 17.0624C599.871 16.7951 598.217 16.5299 596.562 16.2668L596.405 17.2544ZM606.323 18.8581C607.98 19.1304 609.635 19.4047 611.289 19.6809L611.454 18.6946C609.799 18.4182 608.143 18.1438 606.485 17.8713L606.323 18.8581ZM616.245 20.5152C617.895 20.7952 619.544 21.077 621.191 21.3604L621.36 20.3749C619.713 20.0913 618.063 19.8094 616.412 19.5293L616.245 20.5152ZM626.147 22.2199C627.802 22.509 629.455 22.7997 631.106 23.0921L631.28 22.1074C629.629 21.8149 627.975 21.524 626.319 21.2348L626.147 22.2199ZM636.049 23.9736C637.695 24.2689 639.337 24.5657 640.977 24.8639L641.156 23.88C639.516 23.5817 637.872 23.2848 636.226 22.9893L636.049 23.9736ZM645.941 25.7725C647.594 26.0769 649.243 26.3825 650.889 26.6894L651.072 25.7064C649.426 25.3994 647.776 25.0935 646.122 24.789L645.941 25.7725ZM655.816 27.6136C657.464 27.9246 659.108 28.2367 660.748 28.5498L660.936 27.5676C659.295 27.2543 657.65 26.9421 656.001 26.631L655.816 27.6136ZM665.705 29.5016C667.353 29.8199 668.997 30.1391 670.636 30.4591L670.828 29.4776C669.188 29.1575 667.544 28.8381 665.895 28.5198L665.705 29.5016ZM675.54 31.4216C677.197 31.7485 678.848 32.0762 680.495 32.4046L680.69 31.4239C679.043 31.0954 677.391 30.7676 675.734 30.4405L675.54 31.4216ZM685.435 33.3949C687.076 33.7256 688.712 34.0568 690.342 34.3885L690.541 33.4086C688.911 33.0768 687.274 32.7454 685.633 32.4146L685.435 33.3949ZM695.257 35.3936C696.914 35.7342 698.566 36.0752 700.21 36.4165L700.413 35.4373C698.768 35.096 697.116 34.7548 695.458 34.4141L695.257 35.3936ZM705.124 37.4407C706.755 37.7823 708.379 38.124 709.995 38.4657L710.202 37.4874C708.585 37.1455 706.96 36.8037 705.329 36.462L705.124 37.4407ZM714.962 39.5203C716.611 39.8719 718.251 40.2235 719.884 40.5748L720.094 39.5971C718.461 39.2457 716.82 38.8941 715.17 38.5423L714.962 39.5203ZM724.756 41.6277C726.411 41.9868 728.056 42.3456 729.692 42.7037L729.906 41.7269C728.27 41.3686 726.623 41.0097 724.968 40.6505L724.756 41.6277ZM734.624 43.7878C736.258 44.1485 737.882 44.5085 739.495 44.8677L739.713 43.8916C738.098 43.5323 736.474 43.1721 734.839 42.8113L734.624 43.7878ZM744.406 45.9653C746.064 46.3372 747.71 46.7081 749.344 47.0778L749.565 46.1025C747.93 45.7327 746.283 45.3616 744.625 44.9895L744.406 45.9653ZM754.211 48.1831C755.857 48.5584 757.49 48.9322 759.11 49.3044L759.333 48.3298C757.713 47.9574 756.08 47.5835 754.433 47.2082L754.211 48.1831ZM764.048 50.4435C765.68 50.8215 767.297 51.1975 768.9 51.5715L769.127 50.5977C767.524 50.2236 765.906 49.8474 764.273 49.4693L764.048 50.4435ZM773.808 52.7211C775.466 53.1111 777.108 53.4986 778.733 53.8834L778.963 52.9104C777.338 52.5254 775.696 52.1378 774.037 51.7476L773.808 52.7211ZM783.553 55.0296C785.222 55.428 786.872 55.8233 788.501 56.2151L788.735 55.2428C787.105 54.8509 785.455 54.4555 783.785 54.0569L783.553 55.0296ZM793.388 57.3943C795.019 57.7895 796.628 58.1807 798.214 58.5677L798.451 57.5962C796.864 57.2091 795.255 56.8177 793.623 56.4225L793.388 57.3943ZM803.175 59.7828C804.802 60.1829 806.403 60.5779 807.976 60.9676L808.217 59.997C806.643 59.6071 805.041 59.2119 803.413 58.8117L803.175 59.7828ZM812.928 62.1984C814.575 62.6094 816.188 63.0136 817.768 63.4107L818.012 62.4409C816.432 62.0437 814.817 61.6393 813.17 61.2282L812.928 62.1984ZM822.668 64.6474C824.33 65.0684 825.949 65.4801 827.523 65.882L827.77 64.9131C826.195 64.511 824.576 64.0991 822.914 63.678L822.668 64.6474ZM832.419 67.1369C834.081 67.5646 835.685 67.979 837.228 68.3795L837.479 67.4116C835.935 67.0109 834.331 66.5963 832.668 66.1685L832.419 67.1369ZM842.176 69.6686C843.866 70.1109 845.466 70.5318 846.974 70.9299L847.229 69.9631C845.721 69.5647 844.12 69.1436 842.429 68.7011L842.176 69.6686ZM851.782 72.2057C853.605 72.692 855.236 73.1298 856.664 73.5153L856.925 72.5498C855.495 72.1641 853.864 71.7261 852.039 71.2395L851.782 72.2057ZM861.586 74.8528C862.336 75.0585 862.907 75.2158 863.289 75.3216C863.48 75.3745 863.624 75.4145 863.721 75.4413C863.769 75.4547 863.805 75.4648 863.829 75.4715C863.841 75.4749 863.851 75.4774 863.857 75.4791C863.86 75.4799 863.862 75.4806 863.863 75.481C863.864 75.4812 863.865 75.4813 863.865 75.4814C863.865 75.4815 863.865 75.4815 863.865 75.4816C863.866 75.4816 863.866 75.4816 863.866 75.4816C863.866 75.4816 863.866 75.4816 863.866 75.4816C863.866 75.4816 863.866 75.4816 864 75C864.134 74.5184 864.134 74.5184 864.134 74.5184C864.134 74.5184 864.134 74.5184 864.134 74.5184C864.134 74.5184 864.134 74.5184 864.134 74.5184C864.134 74.5183 864.134 74.5183 864.134 74.5182C864.133 74.5181 864.133 74.518 864.132 74.5178C864.131 74.5173 864.128 74.5167 864.125 74.5158C864.119 74.5141 864.11 74.5116 864.098 74.5082C864.073 74.5014 864.037 74.4913 863.989 74.4778C863.892 74.4509 863.747 74.4108 863.556 74.3578C863.172 74.2518 862.602 74.0943 861.85 73.8883L861.586 74.8528Z" fill="black"/>
</svg>
