<svg width="865" height="74" viewBox="0 0 865 74" fill="none" xmlns="http://www.w3.org/2000/svg">
<path opacity="0.3" d="M435.985 73L435.985 72.5L435.985 73ZM864 -0.999802C863.864 -1.48082 863.864 -1.48082 863.864 -1.48082C863.864 -1.48082 863.864 -1.48081 863.864 -1.48081C863.864 -1.4808 863.863 -1.4808 863.863 -1.48078C863.863 -1.48076 863.863 -1.48072 863.863 -1.48067C863.863 -1.48057 863.862 -1.48041 863.861 -1.4802C863.86 -1.47978 863.858 -1.47916 863.855 -1.47832C863.849 -1.47663 863.84 -1.47411 863.828 -1.47075C863.804 -1.46403 863.769 -1.45395 863.721 -1.44057C863.626 -1.4138 863.485 -1.37382 863.297 -1.32098C862.921 -1.21529 862.36 -1.05819 861.622 -0.852616L861.891 0.11071C862.63 -0.0950853 863.191 -0.252403 863.567 -0.358307C863.756 -0.411255 863.898 -0.451347 863.993 -0.47821C864.041 -0.491646 864.076 -0.501778 864.1 -0.508553C864.112 -0.51194 864.121 -0.514488 864.127 -0.516197C864.13 -0.517052 864.133 -0.517693 864.134 -0.51812C864.135 -0.518333 864.135 -0.518501 864.136 -0.518608C864.136 -0.518661 864.136 -0.518707 864.136 -0.51873C864.136 -0.518745 864.136 -0.518761 864.136 -0.518768C864.136 -0.518768 864.136 -0.518768 864.136 -0.518776C864.136 -0.518776 864.136 -0.518776 864 -0.999802ZM856.782 0.48429C855.377 0.869521 853.773 1.3071 851.98 1.79317L852.242 2.75835C854.036 2.27201 855.641 1.83417 857.047 1.44869L856.782 0.48429ZM847.253 3.06791C845.77 3.46592 844.196 3.88667 842.534 4.32881L842.791 5.29521C844.454 4.85288 846.029 4.43193 847.513 4.03373L847.253 3.06791ZM837.668 5.61741C836.15 6.01764 834.573 6.4318 832.939 6.85911L833.192 7.82657C834.827 7.39908 836.404 6.98476 837.923 6.58437L837.668 5.61741ZM828.123 8.11375C826.575 8.5154 824.983 8.92685 823.349 9.34756L823.598 10.316C825.233 9.89511 826.825 9.4835 828.374 9.0817L828.123 8.11375ZM818.528 10.584C816.975 10.9808 815.388 11.3848 813.768 11.7955L814.014 12.7648C815.634 12.354 817.222 11.9498 818.775 11.5529L818.528 10.584ZM808.897 13.0262C807.35 13.4156 805.776 13.8105 804.175 14.2103L804.418 15.1805C806.019 14.7805 807.594 14.3855 809.142 13.9959L808.897 13.0262ZM799.297 15.4247C797.737 15.8117 796.154 16.2029 794.549 16.5981L794.788 17.5691C796.393 17.1738 797.977 16.7825 799.538 16.3953L799.297 15.4247ZM789.743 17.7768C788.14 18.1685 786.517 18.5638 784.874 18.9622L785.11 19.9341C786.753 19.5354 788.377 19.1401 789.981 18.7482L789.743 17.7768ZM780.134 20.1078C778.536 20.4925 776.922 20.8798 775.29 21.2697L775.523 22.2423C777.155 21.8523 778.77 21.4648 780.368 21.08L780.134 20.1078ZM770.462 22.4192C768.885 22.7931 767.294 23.169 765.689 23.5468L765.918 24.5202C767.524 24.1423 769.115 23.7662 770.692 23.3923L770.462 22.4192ZM760.832 24.6855C759.238 25.0577 757.632 25.4316 756.012 25.8068L756.238 26.781C757.858 26.4056 759.465 26.0317 761.06 25.6593L760.832 24.6855ZM751.225 26.9118C749.618 27.2813 747.999 27.6521 746.369 28.024L746.591 28.9989C748.222 28.627 749.842 28.256 751.45 27.8863L751.225 26.9118ZM741.536 29.1216C739.949 29.4807 738.351 29.8407 736.744 30.2013L736.963 31.177C738.571 30.8163 740.169 30.4562 741.757 30.097L741.536 29.1216ZM731.894 31.285C730.284 31.6432 728.665 32.002 727.037 32.3612L727.252 33.3377C728.881 32.9784 730.5 32.6195 732.111 32.2612L731.894 31.285ZM722.244 33.4139C720.638 33.7651 719.024 34.1166 717.402 34.4682L717.614 35.4455C719.236 35.0937 720.851 34.7422 722.457 34.3908L722.244 33.4139ZM712.515 35.5229C710.924 35.8645 709.327 36.2062 707.722 36.5477L707.931 37.5258C709.536 37.1841 711.134 36.8423 712.725 36.5005L712.515 35.5229ZM702.889 37.5718C701.271 37.913 699.647 38.254 698.016 38.5946L698.221 39.5734C699.852 39.2327 701.477 38.8916 703.095 38.5503L702.889 37.5718ZM693.18 39.5999C691.576 39.9315 689.967 40.2627 688.352 40.5934L688.553 41.5731C690.168 41.2423 691.778 40.9109 693.382 40.5791L693.18 39.5999ZM683.492 41.5836C681.872 41.9121 680.247 42.2398 678.616 42.5668L678.813 43.5473C680.444 43.2201 682.07 42.8923 683.691 42.5637L683.492 41.5836ZM673.792 43.5293C672.179 43.8493 670.562 44.1685 668.94 44.4868L669.133 45.468C670.755 45.1497 672.373 44.8303 673.987 44.5102L673.792 43.5293ZM664.063 45.4386C662.449 45.7518 660.831 46.0639 659.21 46.375L659.398 47.3571C661.02 47.0459 662.639 46.7336 664.254 46.4203L664.063 45.4386ZM654.362 47.2993C652.743 47.6062 651.12 47.9119 649.494 48.2163L649.678 49.1992C651.305 48.8947 652.928 48.5888 654.548 48.2818L654.362 47.2993ZM644.609 49.1251C642.996 49.4233 641.379 49.7202 639.76 50.0156L639.94 50.9993C641.56 50.7038 643.177 50.4068 644.791 50.1084L644.609 49.1251ZM634.896 50.8972C633.272 51.1896 631.645 51.4804 630.017 51.7695L630.192 52.7541C631.821 52.4648 633.448 52.1739 635.073 51.8814L634.896 50.8972ZM625.139 52.6292C623.519 52.9128 621.897 53.1946 620.273 53.4746L620.443 54.4601C622.068 54.1799 623.691 53.8979 625.312 53.6142L625.139 52.6292ZM615.396 54.3091C613.768 54.5854 612.14 54.8598 610.509 55.1322L610.674 56.1185C612.305 55.846 613.935 55.5714 615.563 55.295L615.396 54.3091ZM605.63 55.9409C604.004 56.2081 602.377 56.4733 600.749 56.7363L600.908 57.7235C602.537 57.4604 604.165 57.1951 605.792 56.9277L605.63 55.9409ZM595.863 57.5188C594.233 57.7774 592.603 58.0337 590.973 58.2877L591.127 59.2758C592.758 59.0216 594.389 58.7652 596.02 58.5064L595.863 57.5188ZM586.082 59.0423C584.452 59.2914 582.821 59.5381 581.19 59.7823L581.338 60.7713C582.97 60.5269 584.602 60.2801 586.233 60.0308L586.082 59.0423ZM576.298 60.5071C574.666 60.7464 573.033 60.9832 571.401 61.2171L571.543 62.207C573.176 61.9729 574.81 61.736 576.443 61.4965L576.298 60.5071ZM566.497 61.9123C564.863 62.1412 563.23 62.3673 561.597 62.5905L561.733 63.5813C563.366 63.3579 565.001 63.1317 566.636 62.9026L566.497 61.9123ZM556.703 63.2513C555.064 63.4696 553.427 63.685 551.79 63.8972L551.919 64.8889C553.556 64.6765 555.195 64.461 556.835 64.2425L556.703 63.2513ZM546.877 64.5256C545.24 64.7319 543.605 64.9349 541.972 65.1346L542.094 66.1272C543.728 65.9274 545.364 65.7242 547.002 65.5178L546.877 64.5256ZM537.075 65.7242C535.428 65.9192 533.784 66.1107 532.141 66.2987L532.255 67.2922C533.899 67.1041 535.544 66.9124 537.192 66.7173L537.075 65.7242ZM527.222 66.8516C525.585 67.0323 523.95 67.2093 522.318 67.3825L522.424 68.3769C524.057 68.2035 525.693 68.0264 527.332 67.8456L527.222 66.8516ZM517.396 67.8941C515.747 68.062 514.1 68.2259 512.457 68.3857L512.554 69.381C514.198 69.221 515.846 69.057 517.498 68.889L517.396 67.8941ZM507.537 68.8526C505.901 69.0041 504.268 69.1515 502.639 69.2945L502.727 70.2906C504.357 70.1475 505.992 70 507.63 69.8484L507.537 68.8526ZM497.681 69.7174C496.03 69.8541 494.384 69.9861 492.742 70.1136L492.819 71.1106C494.463 70.983 496.111 70.8508 497.763 70.714L497.681 69.7174ZM487.83 70.4817C486.181 70.6008 484.536 70.7151 482.897 70.8244L482.964 71.8222C484.605 71.7128 486.251 71.5983 487.902 71.4791L487.83 70.4817ZM477.935 71.1409C476.287 71.2412 474.644 71.3363 473.006 71.4261L473.061 72.4246C474.7 72.3347 476.345 72.2395 477.996 72.139L477.935 71.1409ZM468.107 71.6795C466.438 71.7606 464.776 71.836 463.12 71.9055L463.162 72.9046C464.82 72.835 466.485 72.7596 468.155 72.6784L468.107 71.6795ZM458.174 72.0962C456.532 72.1539 454.897 72.2055 453.269 72.2511L453.297 73.2507C454.927 73.2051 456.564 73.1533 458.209 73.0956L458.174 72.0962ZM448.299 72.3715C446.637 72.4055 444.982 72.4328 443.336 72.4534L443.348 73.4534C444.997 73.4327 446.654 73.4054 448.32 73.3713L448.299 72.3715ZM438.422 72.4948C437.608 72.4982 436.795 72.5 435.985 72.5L435.985 73.5C436.797 73.5 437.61 73.4982 438.427 73.4947L438.422 72.4948ZM435.985 72.5C435.162 72.5 434.337 72.4982 433.509 72.4948L433.505 73.4948C434.334 73.4982 435.16 73.5 435.985 73.5L435.985 72.5ZM428.518 72.4535C426.846 72.4329 425.165 72.4056 423.476 72.3717L423.456 73.3715C425.148 73.4055 426.831 73.4328 428.506 73.4534L428.518 72.4535ZM418.428 72.2513C416.775 72.2058 415.114 72.1542 413.446 72.0966L413.412 73.096C415.082 73.1537 416.745 73.2054 418.401 73.251L418.428 72.2513ZM408.422 71.906C406.74 71.8366 405.051 71.7613 403.356 71.6803L403.309 72.6792C405.006 72.7603 406.696 72.8357 408.38 72.9052L408.422 71.906ZM398.379 71.4271C396.716 71.3374 395.047 71.2424 393.372 71.1421L393.313 72.1404C394.989 72.2407 396.66 72.3358 398.325 72.4256L398.379 71.4271ZM388.332 70.8259C386.667 70.7167 384.996 70.6025 383.321 70.4835L383.25 71.4809C384.927 71.6001 386.6 71.7145 388.267 71.8238L388.332 70.8259ZM378.331 70.1157C376.663 69.9884 374.991 69.8564 373.314 69.7199L373.233 70.7166C374.911 70.8532 376.585 70.9853 378.255 71.1128L378.331 70.1157ZM368.276 69.2972C366.622 69.1543 364.963 69.0071 363.301 68.8557L363.21 69.8516C364.874 70.0031 366.534 70.1505 368.19 70.2935L368.276 69.2972ZM358.303 68.3891C356.634 68.2294 354.961 68.0656 353.285 67.8979L353.185 68.8929C354.863 69.0608 356.537 69.2247 358.208 69.3845L358.303 68.3891ZM348.285 67.3866C346.627 67.2135 344.966 67.0366 343.302 66.8561L343.195 67.8502C344.859 68.0309 346.521 68.2079 348.181 68.3812L348.285 67.3866ZM338.305 66.3035C336.636 66.1157 334.966 65.9243 333.293 65.7294L333.177 66.7227C334.851 66.9177 336.523 67.1093 338.193 67.2972L338.305 66.3035ZM328.316 65.1401C326.657 64.9405 324.996 64.7376 323.334 64.5314L323.211 65.5238C324.875 65.7301 326.537 65.9332 328.197 66.1329L328.316 65.1401ZM318.341 63.9034C316.679 63.6913 315.015 63.476 313.35 63.2578L313.22 64.2493C314.886 64.4677 316.551 64.6831 318.215 64.8954L318.341 63.9034ZM308.377 62.5973C306.718 62.3742 305.059 62.1483 303.398 61.9194L303.262 62.9101C304.923 63.139 306.584 63.3652 308.244 63.5884L308.377 62.5973ZM298.416 61.2246C296.758 60.9907 295.099 60.7541 293.44 60.5149L293.297 61.5047C294.957 61.744 296.617 61.9808 298.276 62.2148L298.416 61.2246ZM288.469 59.7904C286.812 59.5463 285.155 59.2997 283.499 59.0507L283.35 60.0396C285.008 60.2887 286.666 60.5355 288.324 60.7797L288.469 59.7904ZM278.529 58.2964C276.872 58.0425 275.216 57.7862 273.56 57.5277L273.406 58.5157C275.062 58.7744 276.72 59.0308 278.377 59.2848L278.529 58.2964ZM268.595 56.7455C266.941 56.4826 265.287 56.2175 263.635 55.9503L263.475 56.9375C265.129 57.2048 266.783 57.4701 268.438 57.7331L268.595 56.7455ZM258.677 55.1419C257.02 54.8696 255.365 54.5952 253.711 54.319L253.546 55.3054C255.201 55.5817 256.857 55.8562 258.515 56.1286L258.677 55.1419ZM248.755 53.4847C247.105 53.2048 245.456 52.923 243.809 52.6395L243.64 53.625C245.287 53.9086 246.937 54.1905 248.588 54.4706L248.755 53.4847ZM238.853 51.78C237.198 51.4909 235.545 51.2002 233.894 50.9079L233.72 51.8926C235.371 52.185 237.025 52.4759 238.681 52.7651L238.853 51.78ZM228.951 50.0264C227.305 49.731 225.663 49.4342 224.023 49.1361L223.844 50.1199C225.484 50.4182 227.128 50.7152 228.774 51.0106L228.951 50.0264ZM219.059 48.2275C217.406 47.9231 215.757 47.6174 214.111 47.3105L213.928 48.2936C215.574 48.6006 217.224 48.9064 218.878 49.2109L219.059 48.2275ZM209.184 46.3863C207.536 46.0753 205.892 45.7632 204.252 45.4501L204.064 46.4324C205.705 46.7456 207.35 47.0578 208.999 47.369L209.184 46.3863ZM199.295 44.4983C197.647 44.1801 196.003 43.8609 194.364 43.5409L194.172 44.5223C195.812 44.8425 197.456 45.1618 199.105 45.4802L199.295 44.4983ZM189.46 42.5783C187.803 42.2514 186.152 41.9237 184.505 41.5954L184.31 42.5761C185.957 42.9045 187.609 43.2324 189.266 43.5594L189.46 42.5783ZM179.565 40.6051C177.924 40.2744 176.288 39.9431 174.658 39.6115L174.459 40.5914C176.089 40.9232 177.726 41.2546 179.367 41.5854L179.565 40.6051ZM169.743 38.6063C168.086 38.2657 166.434 37.9247 164.79 37.5835L164.587 38.5626C166.232 38.904 167.884 39.2451 169.542 39.5859L169.743 38.6063ZM159.876 36.5592C158.245 36.2176 156.621 35.8759 155.005 35.5342L154.798 36.5126C156.415 36.8544 158.04 37.1962 159.671 37.538L159.876 36.5592ZM150.038 34.4797C148.389 34.128 146.749 33.7765 145.116 33.4252L144.906 34.4028C146.539 34.7542 148.18 35.1059 149.83 35.4577L150.038 34.4797ZM140.244 32.3722C138.589 32.0131 136.944 31.6544 135.308 31.2962L135.094 32.2731C136.73 32.6314 138.377 32.9902 140.032 33.3494L140.244 32.3722ZM130.376 30.2122C128.742 29.8514 127.118 29.4914 125.505 29.1322L125.287 30.1083C126.902 30.4676 128.526 30.8278 130.161 31.1886L130.376 30.2122ZM120.594 28.0347C118.936 27.6627 117.29 27.2918 115.656 26.9221L115.435 27.8974C117.07 28.2673 118.717 28.6383 120.375 29.0104L120.594 28.0347ZM110.789 25.8168C109.143 25.4416 107.51 25.0678 105.89 24.6956L105.667 25.6702C107.287 26.0425 108.92 26.4164 110.567 26.7918L110.789 25.8168ZM100.952 23.5564C99.3203 23.1785 97.7027 22.8024 96.0999 22.4284L95.8727 23.4022C97.476 23.7764 99.0942 24.1526 100.727 24.5306L100.952 23.5564ZM91.1923 21.2789C89.5335 20.8888 87.8917 20.5013 86.2673 20.1165L86.0368 21.0896C87.6617 21.4745 89.3041 21.8622 90.9634 22.2523L91.1923 21.2789ZM81.4473 18.9704C79.7776 18.5719 78.1278 18.1767 76.4985 17.7849L76.2648 18.7572C77.8946 19.1491 79.5449 19.5444 81.2151 19.9431L81.4473 18.9704ZM71.6123 16.6056C69.9811 16.2104 68.3721 15.8192 66.7861 15.4322L66.5491 16.4037C68.1356 16.7908 69.7451 17.1822 71.3768 17.5775L71.6123 16.6056ZM61.8253 14.2171C60.1979 13.817 58.5971 13.422 57.0236 13.0323L56.7831 14.003C58.3572 14.3928 59.9586 14.788 61.5866 15.1882L61.8253 14.2171ZM52.0724 11.8015C50.4254 11.3905 48.8117 10.9863 47.2322 10.5892L46.9884 11.559C48.5684 11.9563 50.1827 12.3606 51.8303 12.7717L52.0724 11.8015ZM42.3319 9.35256C40.67 8.93158 39.0513 8.51985 37.477 8.11793L37.2296 9.08685C38.8046 9.48892 40.4239 9.9008 42.0863 10.3219L42.3319 9.35256ZM32.5808 6.86298C30.9191 6.43537 29.3154 6.02091 27.7717 5.6204L27.5206 6.58836C29.0649 6.98902 30.6693 7.40364 32.3315 7.83142L32.5808 6.86298ZM22.8245 4.33136C21.1344 3.88906 19.5339 3.46815 18.0261 3.06998L17.7708 4.03684C19.2792 4.43519 20.8805 4.8563 22.5713 5.29879L22.8245 4.33136ZM13.2185 1.79421C11.3949 1.30789 9.76417 0.870081 8.33558 0.484644L8.07508 1.45012C9.50458 1.8358 11.1362 2.27386 12.9608 2.76045L13.2185 1.79421ZM3.41437 -0.852828C2.66358 -1.05861 2.09345 -1.21587 1.71107 -1.32165C1.51984 -1.37455 1.37562 -1.41458 1.27918 -1.44137C1.23096 -1.45476 1.19477 -1.46485 1.1706 -1.47159C1.15851 -1.47495 1.14942 -1.47748 1.14338 -1.47916C1.14039 -1.48 1.13813 -1.48063 1.1366 -1.48105C1.13587 -1.48126 1.13532 -1.48141 1.13496 -1.48152C1.13477 -1.48157 1.13465 -1.4816 1.13453 -1.48164C1.13447 -1.48164 1.13447 -1.48165 1.13441 -1.48166C1.13441 -1.48167 1.13441 -1.48167 1.13441 -1.48167C1.13441 -1.48167 1.13441 -1.48167 1.00001 -1.00008C0.865546 -0.518485 0.865546 -0.518485 0.865546 -0.518478C0.865607 -0.518478 0.865607 -0.518478 0.865607 -0.51847C0.865607 -0.518462 0.865668 -0.518455 0.865729 -0.518439C0.86579 -0.518409 0.865973 -0.518371 0.866156 -0.518317C0.866584 -0.518203 0.867133 -0.518043 0.867926 -0.517829C0.869452 -0.517402 0.871772 -0.516753 0.874823 -0.515899C0.880927 -0.514197 0.890082 -0.511642 0.902289 -0.508254C0.926642 -0.501472 0.96308 -0.491332 1.01142 -0.477882C1.10822 -0.450988 1.25281 -0.410857 1.4444 -0.357863C1.82752 -0.251861 2.3985 -0.0943899 3.15003 0.111596L3.41437 -0.852828Z" fill="black"/>
</svg>
