<svg width="321" height="275" viewBox="0 0 321 275" fill="none" xmlns="http://www.w3.org/2000/svg">
<path opacity="0.5" d="M320.5 137.5C320.5 213.093 248.941 274.5 160.5 274.5C72.0591 274.5 0.5 213.093 0.5 137.5C0.5 61.9067 72.0591 0.5 160.5 0.5C248.941 0.5 320.5 61.9067 320.5 137.5Z" stroke="white"/>
<g filter="url(#filter0_d)">
<path d="M160.327 56.9396C187.352 56.9396 211.84 64.7349 229.582 77.336C237.089 82.6672 243.39 88.8595 248.175 95.69C248.359 95.8189 248.507 96.0048 248.59 96.2335C248.603 96.2681 248.614 96.3032 248.623 96.3384C254.941 105.597 258.487 116.001 258.487 127.004C258.487 138.035 254.924 148.463 248.576 157.739C248.51 157.899 248.412 158.039 248.293 158.15C243.493 165.046 237.15 171.297 229.582 176.672C211.84 189.273 187.352 197.068 160.327 197.068C133.303 197.068 108.815 189.273 91.0722 176.672C73.2145 163.988 62.168 146.43 62.168 127.004C62.168 115.878 65.7927 105.365 72.2448 96.0285C72.2672 95.9913 72.291 95.9562 72.3168 95.9231C77.1208 89.0009 83.4809 82.7273 91.0722 77.3357C94.2614 75.0703 97.6699 72.9604 101.272 71.0238C101.313 70.9978 101.355 70.9744 101.4 70.9545C117.809 62.1571 138.218 56.9395 160.327 56.9395L160.327 56.9396ZM228.296 79.2096C225.169 76.9881 221.825 74.9194 218.291 73.0214L218.279 73.0276C211.284 76.4976 204.259 79.3012 197.207 81.458C201.59 88.858 204.925 97.5994 206.879 107.196C219.849 104.589 232.785 100.887 245.685 96.1012C241.137 89.8439 235.25 84.1493 228.296 79.2097V79.2096ZM215.767 71.7103C203.761 65.685 189.715 61.5656 174.503 59.9717C182.261 63.3826 189.189 69.5207 194.756 77.6177C195.167 78.2156 195.571 78.8245 195.967 79.4428C202.59 77.452 209.189 74.8786 215.767 71.7101L215.767 71.7103ZM256.215 125.857C255.981 115.922 252.712 106.501 247.039 98.0401C233.837 102.971 220.593 106.778 207.308 109.446C208.247 114.703 208.774 120.199 208.837 125.857H256.215ZM228.296 174.799C235.273 169.844 241.174 164.129 245.728 157.849C232.819 153.057 219.873 149.351 206.893 146.741C204.947 156.338 201.619 165.082 197.243 172.487C204.284 174.643 211.296 177.443 218.279 180.907L218.359 180.95C221.867 179.061 225.189 177.006 228.296 174.799H228.296ZM247.078 155.909C252.728 147.463 255.982 138.064 256.215 128.152H208.837C208.774 133.784 208.252 139.255 207.321 144.491C220.615 147.162 233.868 150.972 247.078 155.909ZM174.503 194.036C189.748 192.439 203.821 188.307 215.843 182.26C209.253 179.082 202.641 176.5 196.006 174.503C195.598 175.143 195.181 175.772 194.757 176.39C189.189 184.487 182.261 190.625 174.503 194.036H174.503ZM92.3594 174.799C95.3292 176.909 98.4947 178.881 101.833 180.7C109.072 177.426 116.29 174.724 123.485 172.613C119.087 165.204 115.739 156.446 113.78 146.829C100.874 149.431 87.9305 153.109 74.9472 157.876C79.4986 164.145 85.3929 169.851 92.3594 174.799ZM104.402 182.052C116.513 188.212 130.733 192.421 146.152 194.036C138.394 190.625 131.466 184.487 125.899 176.39C125.502 175.813 125.113 175.226 124.73 174.63C117.977 176.58 111.2 179.059 104.402 182.052ZM64.4401 128.152C64.6743 138.074 67.9344 147.484 73.5953 155.937C86.8836 151.026 100.135 147.245 113.35 144.582C112.409 139.319 111.882 133.816 111.819 128.152H64.4401ZM92.3594 79.2099C85.4141 84.1418 79.5357 89.8271 74.9897 96.0738C87.9635 100.834 100.898 104.508 113.794 107.108C115.761 97.491 119.116 88.736 123.522 81.333C116.339 79.2266 109.133 76.5328 101.907 73.2676C98.5405 75.0989 95.3519 77.0845 92.3592 79.2099H92.3594ZM73.6349 98.0122C67.9492 106.48 64.6747 115.911 64.44 125.857H111.819C111.882 120.167 112.415 114.64 113.364 109.355C100.157 106.695 86.9146 102.917 73.6349 98.0121V98.0122ZM146.152 59.972C130.766 61.5838 116.573 65.779 104.479 71.9168C111.265 74.9003 118.029 77.3713 124.77 79.3162C125.14 78.7412 125.516 78.1746 125.898 77.618C131.466 69.521 138.394 63.3829 146.152 59.972H146.152ZM192.915 78.9267C184.797 67.122 173.707 59.6873 161.456 59.2553V84.6228C172.261 84.5871 183.011 83.0987 193.702 80.1009C193.442 79.7055 193.18 79.3128 192.915 78.9267ZM206.58 125.858C206.517 120.345 206.005 114.995 205.095 109.879C190.598 112.652 176.052 114.071 161.456 114.123V125.858H206.58ZM204.667 107.63C202.722 98.0744 199.374 89.4023 194.973 82.1206C183.868 85.2972 172.695 86.8733 161.456 86.9094V111.837C175.902 111.786 190.305 110.379 204.667 107.63ZM192.915 175.082C193.194 174.675 193.47 174.262 193.743 173.845C183.039 170.839 172.276 169.347 161.456 169.312V194.753C173.707 194.321 184.797 186.887 192.915 175.082ZM195.011 171.825C199.404 164.538 202.744 155.864 204.681 146.307C190.315 143.557 175.907 142.149 161.456 142.098V167.025C172.708 167.062 183.895 168.64 195.011 171.825ZM205.108 144.059C206.01 138.965 206.518 133.638 206.58 128.152H161.456V139.812C176.056 139.864 190.606 141.284 205.108 144.059ZM127.741 175.082C135.858 186.887 146.948 194.321 159.199 194.753V169.326C148.53 169.491 137.799 171.062 127.009 173.991C127.25 174.358 127.494 174.722 127.741 175.082ZM114.075 128.152C114.138 133.669 114.651 139.026 115.563 144.145C130.153 141.343 144.699 139.904 159.199 139.814V128.152H114.075V128.152ZM115.991 146.393C117.944 155.98 121.309 164.676 125.734 171.972C136.944 168.872 148.101 167.208 159.199 167.04V142.1C144.845 142.189 130.442 143.615 115.991 146.393V146.393ZM127.741 78.9267C127.508 79.2654 127.278 79.6088 127.05 79.9547C137.826 82.8761 148.544 84.4445 159.199 84.6085V59.2553C146.948 59.6873 135.858 67.122 127.741 78.9267ZM125.772 81.9728C121.339 89.2633 117.966 97.9567 116.006 107.544C130.453 110.32 144.85 111.746 159.199 111.835V86.8948C148.113 86.7272 136.969 85.0667 125.772 81.9729V81.9728ZM115.576 109.792C114.656 114.933 114.138 120.314 114.075 125.857H159.199V114.12C144.702 114.031 130.161 112.593 115.576 109.791V109.792Z" fill="white"/>
<path fill-rule="evenodd" clip-rule="evenodd" d="M55.51 123.343C57.4571 123.343 59.0357 124.948 59.0357 126.928C59.0357 128.908 57.4571 130.513 55.51 130.513C53.5628 130.513 51.9844 128.908 51.9844 126.928C51.9844 124.948 53.5628 123.343 55.51 123.343ZM265.227 123.343C267.174 123.343 268.753 124.948 268.753 126.928C268.753 128.908 267.174 130.513 265.227 130.513C263.28 130.513 261.702 128.908 261.702 126.928C261.702 124.948 263.28 123.343 265.227 123.343ZM265.112 135.138C259.431 172.719 214.681 201.978 160.321 201.978C106.2 201.978 61.6035 172.975 55.6105 135.66C55.0625 178.319 104.572 209.392 160.32 209.392C216.316 209.392 266.268 176.888 265.112 135.138Z" fill="white"/>
<path d="M80.4941 217.522H87.3037L89.8971 227.814L92.499 217.522H99.2775V234.437H95.054V221.542L91.7952 234.437H87.9687L84.7175 221.542V234.437H80.4941V217.522ZM104.195 217.522H118.008V221.136H109.375V223.83H117.378V227.279H109.375V230.61H118.265V234.437H104.195V217.521V217.522ZM122.654 217.522H131.24C133.111 217.522 134.51 217.97 135.444 218.872C136.373 219.774 136.84 221.057 136.84 222.723C136.84 224.432 136.331 225.77 135.315 226.731C134.301 227.696 132.749 228.176 130.665 228.176H127.834V234.437H122.654V217.521L122.654 217.522ZM127.834 224.751H129.105C130.109 224.751 130.813 224.574 131.217 224.223C131.621 223.873 131.824 223.424 131.824 222.877C131.824 222.345 131.648 221.896 131.295 221.526C130.945 221.156 130.283 220.971 129.312 220.971H127.834V224.751V224.751ZM157.142 217.522V234.437H152.289V225.149L146.078 234.437H141.183V217.522H146.059V226.881L152.316 217.522H157.142H157.142ZM179.75 238.122H175.597V234.437H164.934V238.122H160.781V230.539H162.504C163.472 227.806 163.954 224.727 163.954 221.294V217.522H177.954V230.539H179.75V238.122H179.75ZM172.797 230.539V221.679H168.644V221.9C168.644 224.235 168.255 227.117 167.473 230.539H172.797ZM199.391 217.522V234.437H194.538V225.149L188.328 234.437H183.431V217.522H188.308V226.881L194.566 217.522H199.391H199.391ZM214.754 231.649H208.906L208.066 234.437H202.796L209.085 217.522H214.735L220.996 234.437H215.591L214.755 231.649H214.754ZM213.662 227.988L211.838 221.908L210.006 227.988H213.661H213.662ZM224.28 217.522H229.437V223.428H235.083V217.522H240.264V234.437H235.083V227.586H229.437V234.437H224.28V217.522Z" fill="white"/>
</g>
<defs>
<filter id="filter0_d" x="36.9844" y="56.9395" width="246.769" height="211.183" filterUnits="userSpaceOnUse" color-interpolation-filters="sRGB">
<feFlood flood-opacity="0" result="BackgroundImageFix"/>
<feColorMatrix in="SourceAlpha" type="matrix" values="0 0 0 0 0 0 0 0 0 0 0 0 0 0 0 0 0 0 127 0"/>
<feOffset dy="15"/>
<feGaussianBlur stdDeviation="7.5"/>
<feColorMatrix type="matrix" values="0 0 0 0 0 0 0 0 0 0 0 0 0 0 0 0 0 0 0.25 0"/>
<feBlend mode="normal" in2="BackgroundImageFix" result="effect1_dropShadow"/>
<feBlend mode="normal" in="SourceGraphic" in2="effect1_dropShadow" result="shape"/>
</filter>
</defs>
</svg>
