<svg id="Слой_1" data-name="Слой 1" xmlns="http://www.w3.org/2000/svg" viewBox="0 0 110 110"><defs><style>.cls-1,.cls-2{fill:none;stroke:#000;isolation:isolate;}.cls-1{opacity:0.3;}.cls-2{opacity:0.5;}.cls-3{fill:#4eacff;}</style></defs><title>man</title><circle class="cls-1" cx="55" cy="55" r="54.5"/><path class="cls-2" d="M11,56A45,45,0,1,0,56,11"/><path class="cls-3" d="M54.27,67.79A.87.87,0,0,0,53,68l-.11.15a.87.87,0,0,0,1.4,1l.11-.15A.86.86,0,0,0,54.27,67.79Z"/><path class="cls-3" d="M54.49,76l-2.24-4,2.09-2.83a.86.86,0,0,0-.19-1.21.87.87,0,0,0-1.22.19L50.52,71.4a.86.86,0,0,0-.06.93L53,76.86h0A.87.87,0,0,0,54.49,76Z"/><path class="cls-3" d="M61,71.39l-2.41-3.26a.87.87,0,0,0-1.55.3.86.86,0,0,0,.14.72L59.24,72,57,76a.86.86,0,0,0,.55,1.26l.22,0a.87.87,0,0,0,.76-.45L61,72.32A.86.86,0,0,0,61,71.39Z"/><path class="cls-3" d="M62.36,57.8a.87.87,0,0,0-.9.05A13.86,13.86,0,0,0,60,59a6.16,6.16,0,0,1-4.66,1.81h-.16c-.93,0-2.6-.82-4.36-2.2-.27-.21-.55-.41-.82-.6a.87.87,0,0,0-.9,0,.86.86,0,0,0-.46.76v3a.86.86,0,0,0,.33.68l.08.05,6.17,4.1h0a.88.88,0,0,0,.89,0l.08,0h0l6.16-4.09.07-.05a.86.86,0,0,0,.33-.68v-3.1A.86.86,0,0,0,62.36,57.8Zm-1.28,3.4-5.33,3.54-5.33-3.54v-.79c1.3.94,3.21,2.09,4.77,2.09h0a7.94,7.94,0,0,0,5.89-2.14v.84Z"/><path class="cls-3" d="M56.6,65.64A.87.87,0,0,0,55,65.27L53,68a.87.87,0,0,0,.7,1.38.87.87,0,0,0,.7-.35l2-2.7a.86.86,0,0,0,.18-.53A.89.89,0,0,0,56.6,65.64Z"/><path class="cls-3" d="M69,37.72a5.56,5.56,0,0,0-3.2-4.22,3,3,0,0,0-.26-1.82A3.42,3.42,0,0,0,63,30l-.17,0H51.11a8.59,8.59,0,0,0-8.6,8.56v4.56a5.21,5.21,0,0,0,1.15,3.26,4.2,4.2,0,0,1,.89,2.44.87.87,0,0,0,1.74,0V42.83a3.82,3.82,0,0,1,3-3H53a4.27,4.27,0,0,0,1.3-.2c.72-.23,1.86-.65,2.69-1a2.54,2.54,0,0,1,1.73,0l4,1.41a3.68,3.68,0,0,1,2.43,2.79V50a.87.87,0,0,0,.81.86h.07a.87.87,0,0,0,.86-.74,12.19,12.19,0,0,1,1.47-4A3.86,3.86,0,0,0,69,44V37.83A.87.87,0,0,0,69,37.72ZM67.27,44A2.14,2.14,0,0,1,67,45.15V42.81a.86.86,0,0,0,0-.09,5.4,5.4,0,0,0-3.57-4.26h0L59.31,37a4.29,4.29,0,0,0-2.93,0c-1.16.44-2.06.76-2.6.93a2.52,2.52,0,0,1-.77.12h-4a5.53,5.53,0,0,0-4.49,4.4.86.86,0,0,0,0,.19v1.78a3.5,3.5,0,0,1-.29-1.4V38.56a6.85,6.85,0,0,1,6.86-6.83h11.6a1.86,1.86,0,0,1,1.28.74,1.67,1.67,0,0,1,0,1.24.86.86,0,0,0,.58,1.21,3.72,3.72,0,0,1,2.73,3V44Z"/><path class="cls-3" d="M67,42.72a5.4,5.4,0,0,0-3.57-4.26h0L59.32,37a4.29,4.29,0,0,0-2.93,0c-1.16.44-2.06.76-2.6.93a2.52,2.52,0,0,1-.77.12h-4a5.53,5.53,0,0,0-4.49,4.4.86.86,0,0,0,0,.19v7.46c0,.26.19,6.36,4.43,9.16l0,0,.06,0c.24.16.48.34.72.52,1.24,1,3.56,2.57,5.4,2.57h0a4.85,4.85,0,0,0,.52,0,8.25,8.25,0,0,0,5.49-2.27,12.13,12.13,0,0,1,1.25-1l.07,0,.06,0c1.42-.95,3.87-3.38,4.38-9.1,0,0,0-.05,0-.08V42.81A.92.92,0,0,0,67,42.72ZM65.22,50c-.47,5.16-2.68,7.16-3.61,7.78l-.1.07,0,0A13.85,13.85,0,0,0,60,59a6.16,6.16,0,0,1-4.66,1.81h-.15c-.93,0-2.6-.82-4.36-2.2-.27-.21-.55-.41-.82-.6l0,0-.07,0c-3.42-2.25-3.65-7.53-3.65-7.75V42.83a3.82,3.82,0,0,1,3-3H53a4.27,4.27,0,0,0,1.3-.2c.72-.23,1.86-.65,2.69-1a2.54,2.54,0,0,1,1.73,0l4,1.41a3.68,3.68,0,0,1,2.43,2.79V50Z"/><path class="cls-3" d="M56.53,65.38a.87.87,0,0,0-1.48-.13L53,68.08a.87.87,0,0,0,1.4,1l2.09-2.81a.89.89,0,0,0,.17-.52A.86.86,0,0,0,56.53,65.38Z"/><path class="cls-3" d="M56.57,79.32a.87.87,0,0,0-1.22,0l-.2.18A.86.86,0,0,0,55,80.53h0a.87.87,0,0,0,.64.44h.12a.87.87,0,0,0,.62-.25l.19-.19A.86.86,0,0,0,56.57,79.32Z"/><path class="cls-3" d="M56.32,79.47l-.2-.18a.87.87,0,0,0-1.22,0,.86.86,0,0,0,0,1.21l.19.19a.87.87,0,0,0,.62.25h.12a.87.87,0,0,0,.64-.44h0A.86.86,0,0,0,56.32,79.47Z"/><path class="cls-3" d="M56.34,79.48h0a.87.87,0,0,0-1.19,0h0a.86.86,0,0,0,0,1.25h0a.87.87,0,0,0,1.23,0h0a.86.86,0,0,0,0-1.25Z"/><path class="cls-3" d="M56,64.94a.88.88,0,0,0-1,.33.86.86,0,0,0,.09,1.11.87.87,0,0,0,1.49-.61h0A.86.86,0,0,0,56,64.94Z"/><path class="cls-3" d="M56.45,65.26h0a.87.87,0,0,0-1.57.51h0a.87.87,0,0,0,.87.86.88.88,0,0,0,.49-.15.86.86,0,0,0,.22-1.24Z"/><path class="cls-3" d="M66.1,62.54a.87.87,0,0,0-.52-.51l-3.34-1.19-.08,0a.87.87,0,0,0-.69.12L55.28,65h0l.49.72-.5-.71A.86.86,0,0,0,55,66.29l4.53,6.13a.87.87,0,0,0,.7.35h.06a.87.87,0,0,0,.71-.45l5-9.07A.86.86,0,0,0,66.1,62.54ZM60.16,70.3,57,66l5.08-3.38,2,.7Z"/><path class="cls-3" d="M56.59,65.62a.87.87,0,0,0-.37-.57L50,60.93a.88.88,0,0,0-.67-.13l-.1,0L45.9,62a.86.86,0,0,0-.47,1.23l5,9.07a.87.87,0,0,0,.71.45h.06a.87.87,0,0,0,.7-.35l2.42-3.28h0l2.1-2.85A.86.86,0,0,0,56.59,65.62Zm-3.67,2.49h0L51.31,70.3l-3.86-7,2-.7L54.5,66Z"/><path class="cls-3" d="M81.44,77.32l-1.12-6.74a6,6,0,0,0-3.88-4.63L65.58,62a.87.87,0,0,0-.95.24.86.86,0,0,0-.13,1l2.27,4.52-2.23,0a.87.87,0,0,0-.73.42.86.86,0,0,0,0,.84l.91,1.73-9.34,8.5,0,0-.19.19a.86.86,0,0,0-.15,1h0a.87.87,0,0,0,.76.45H78.3a3.18,3.18,0,0,0,2.43-1.12A3.15,3.15,0,0,0,81.44,77.32Zm-2,1.44a1.44,1.44,0,0,1-1.1.51H58l8.41-7.65a.86.86,0,0,0,.18-1L66,69.5l2.19,0a.87.87,0,0,0,.73-.42.86.86,0,0,0,0-.84L67,64.4l8.82,3.17a4.24,4.24,0,0,1,2.75,3.29l1.12,6.74h0A1.42,1.42,0,0,1,79.4,78.76Z"/><path class="cls-3" d="M56.35,79.49h0a.87.87,0,0,0-1.2,0h0A.87.87,0,0,0,55.74,81h0a.87.87,0,0,0,.58-1.51Z"/><path class="cls-3" d="M56.33,79.46a.87.87,0,0,0-1.35.23h0a.86.86,0,0,0,.14,1h0a.87.87,0,0,0,1.21,0h0a.86.86,0,0,0,0-1.29Z"/><path class="cls-3" d="M56.36,79.51h0l-.19-.19,0,0-9.34-8.5.91-1.73a.86.86,0,0,0,0-.84.87.87,0,0,0-.73-.42l-2.23,0L47,63.23a.86.86,0,0,0-.13-1,.87.87,0,0,0-.95-.24L35,65.94a6,6,0,0,0-3.88,4.63L30,77.31a3.15,3.15,0,0,0,.71,2.56A3.18,3.18,0,0,0,33.18,81H55.75a.87.87,0,0,0,.61-1.48Zm-23.18-.25a1.44,1.44,0,0,1-1.1-.51,1.42,1.42,0,0,1-.32-1.16l1.12-6.74a4.24,4.24,0,0,1,2.75-3.29l8.82-3.17-1.91,3.82a.86.86,0,0,0,0,.84.87.87,0,0,0,.73.42l2.19,0-.57,1.08a.86.86,0,0,0,.18,1l8.41,7.65Z"/><path class="cls-3" d="M58.72,68.85a.86.86,0,0,0-.14-.72l-2.12-2.87a.87.87,0,0,0-1.43,0l-2.08,2.81-.08.13a.86.86,0,0,0,.06.88l.89,1.26-.94,5.91a.86.86,0,0,0,.1.55l2,3.65a.87.87,0,0,0,1.53,0l2-3.68a.86.86,0,0,0,.11-.42h0a.88.88,0,0,0,0-.14l-.94-5.89.88-1.25A.88.88,0,0,0,58.72,68.85Zm-3,9.44-1.11-2,1-6a.86.86,0,0,0-.15-.63l-.73-1,1-1.4,1,1.42-.72,1a.86.86,0,0,0-.15.63l.95,5.94Z"/></svg>