<svg width="22" height="38" viewBox="0 0 22 38" fill="none" xmlns="http://www.w3.org/2000/svg">
<path d="M19.1497 0H2.85029C1.27859 0 0 1.2521 0 2.78983V35.2095C0 36.7479 1.27859 38 2.85029 38H19.1491C20.7214 38 22 36.7479 22 35.2102V2.78983C22 1.2521 20.7214 0 19.1497 0ZM1.29412 5.06667H20.7059V29.1333H1.29412V5.06667ZM2.85029 1.26667H19.1491C20.0077 1.26667 20.7059 1.95003 20.7059 2.78983V3.8H1.29412V2.78983C1.29412 1.95003 1.99229 1.26667 2.85029 1.26667ZM19.1497 36.7333H2.85029C1.99229 36.7333 1.29412 36.05 1.29412 35.2102V30.4H20.7059V35.2102C20.7059 36.05 20.0077 36.7333 19.1497 36.7333Z" fill="#4EACFF"/>
<path d="M11.0003 31.0332C9.57293 31.0332 8.41211 32.1694 8.41211 33.5665C8.41211 34.9637 9.57293 36.0999 11.0003 36.0999C12.4278 36.0999 13.5886 34.9637 13.5886 33.5665C13.5886 32.1694 12.4278 31.0332 11.0003 31.0332ZM11.0003 34.8332C10.2866 34.8332 9.70623 34.2651 9.70623 33.5665C9.70623 32.868 10.2866 32.2999 11.0003 32.2999C11.7141 32.2999 12.2945 32.868 12.2945 33.5665C12.2945 34.2651 11.7141 34.8332 11.0003 34.8332Z" fill="#4EACFF"/>
<path d="M8.41268 3.16706H11.0009C11.3581 3.16706 11.648 2.88396 11.648 2.53372C11.648 2.18349 11.3581 1.90039 11.0009 1.90039H8.41268C8.05551 1.90039 7.76562 2.18349 7.76562 2.53372C7.76562 2.88396 8.05551 3.16706 8.41268 3.16706Z" fill="#4EACFF"/>
<path d="M12.942 3.16706H13.589C13.9462 3.16706 14.2361 2.88396 14.2361 2.53372C14.2361 2.18349 13.9462 1.90039 13.589 1.90039H12.942C12.5848 1.90039 12.2949 2.18349 12.2949 2.53372C12.2949 2.88396 12.5848 3.16706 12.942 3.16706Z" fill="#4EACFF"/>
<path d="M12.2699 6.97949H9.73082C9.00352 6.97949 8.41211 7.55836 8.41211 8.27022V10.7554C8.41211 11.4673 9.00352 12.0462 9.73082 12.0462H12.2699C12.9972 12.0462 13.5886 11.4673 13.5886 10.7554V8.27022C13.5886 7.55836 12.9972 6.97949 12.2699 6.97949ZM12.2945 10.7548C12.2945 10.7681 12.2835 10.7789 12.2699 10.7789L9.70623 10.7548L9.73082 8.24553L12.2945 8.27022V10.7548Z" fill="#4EACFF"/>
<path d="M6.44566 6.97949H3.9066C3.1793 6.97949 2.58789 7.55836 2.58789 8.27022V10.7554C2.58789 11.4673 3.1793 12.0462 3.9066 12.0462H6.44566C7.17295 12.0462 7.76436 11.4673 7.76436 10.7554V8.27022C7.76436 7.55836 7.17295 6.97949 6.44566 6.97949ZM6.47024 10.7548C6.47024 10.7681 6.45924 10.7789 6.44566 10.7789L3.88201 10.7548L3.9066 8.24553L6.47024 8.27022V10.7548Z" fill="#4EACFF"/>
<path d="M18.0921 6.97949H15.5531C14.8258 6.97949 14.2344 7.55836 14.2344 8.27022V10.7554C14.2344 11.4673 14.8258 12.0462 15.5531 12.0462H18.0921C18.8194 12.0462 19.4108 11.4673 19.4108 10.7554V8.27022C19.4108 7.55836 18.8194 6.97949 18.0921 6.97949ZM18.1167 10.7548C18.1167 10.7681 18.1057 10.7789 18.0921 10.7789L15.5285 10.7548L15.5531 8.24553L18.1167 8.27022V10.7548Z" fill="#4EACFF"/>
<path d="M12.2699 12.667H9.73082C9.00352 12.667 8.41211 13.2459 8.41211 13.9577V16.4429C8.41211 17.1548 9.00352 17.7337 9.73082 17.7337H12.2699C12.9972 17.7337 13.5886 17.1548 13.5886 16.4429V13.9577C13.5886 13.2459 12.9972 12.667 12.2699 12.667ZM12.2945 16.4429C12.2945 16.4556 12.2835 16.467 12.2699 16.467L9.70623 16.4429L9.73082 13.9337L12.2945 13.9577V16.4429Z" fill="#4EACFF"/>
<path d="M6.44566 12.667H3.9066C3.1793 12.667 2.58789 13.2459 2.58789 13.9577V16.4429C2.58789 17.1548 3.1793 17.7337 3.9066 17.7337H6.44566C7.17295 17.7337 7.76436 17.1548 7.76436 16.4429V13.9577C7.76436 13.2459 7.17295 12.667 6.44566 12.667ZM6.47024 16.4429C6.47024 16.4556 6.45924 16.467 6.44566 16.467L3.88201 16.4429L3.9066 13.9337L6.47024 13.9577V16.4429Z" fill="#4EACFF"/>
<path d="M18.0921 12.667H15.5531C14.8258 12.667 14.2344 13.2459 14.2344 13.9577V16.4429C14.2344 17.1548 14.8258 17.7337 15.5531 17.7337H18.0921C18.8194 17.7337 19.4108 17.1548 19.4108 16.4429V13.9577C19.4108 13.2459 18.8194 12.667 18.0921 12.667ZM18.1167 16.4429C18.1167 16.4556 18.1057 16.467 18.0921 16.467L15.5285 16.4429L15.5531 13.9337L18.1167 13.9577V16.4429Z" fill="#4EACFF"/>
<path d="M12.2699 18.3662H9.73082C9.00352 18.3662 8.41211 18.9451 8.41211 19.6569V22.1421C8.41211 22.854 9.00352 23.4329 9.73082 23.4329H12.2699C12.9972 23.4329 13.5886 22.854 13.5886 22.1421V19.6569C13.5886 18.9451 12.9972 18.3662 12.2699 18.3662ZM12.2945 22.1421C12.2945 22.1548 12.2835 22.1662 12.2699 22.1662L9.70623 22.1421L9.73082 19.6329L12.2945 19.6569V22.1421Z" fill="#4EACFF"/>
<path d="M6.44566 18.3662H3.9066C3.1793 18.3662 2.58789 18.9451 2.58789 19.6569V22.1421C2.58789 22.854 3.1793 23.4329 3.9066 23.4329H6.44566C7.17295 23.4329 7.76436 22.854 7.76436 22.1421V19.6569C7.76436 18.9451 7.17295 18.3662 6.44566 18.3662ZM6.47024 22.1421C6.47024 22.1548 6.45924 22.1662 6.44566 22.1662L3.88201 22.1421L3.9066 19.6329L6.47024 19.6569V22.1421Z" fill="#4EACFF"/>
<path d="M18.0921 18.3662H15.5531C14.8258 18.3662 14.2344 18.9451 14.2344 19.6569V22.1421C14.2344 22.854 14.8258 23.4329 15.5531 23.4329H18.0921C18.8194 23.4329 19.4108 22.854 19.4108 22.1421V19.6569C19.4108 18.9451 18.8194 18.3662 18.0921 18.3662ZM18.1167 22.1421C18.1167 22.1548 18.1057 22.1662 18.0921 22.1662L15.5285 22.1421L15.5531 19.6329L18.1167 19.6569V22.1421Z" fill="#4EACFF"/>
</svg>
