<svg width="24" height="30" viewBox="0 0 24 30" fill="none" xmlns="http://www.w3.org/2000/svg">
<path d="M21.8468 5.21607C19.5821 1.90143 15.993 0 12.0003 0C8.00771 0 4.41856 1.90143 2.15389 5.21607C-0.099646 8.51396 -0.619997 12.6892 0.759185 16.3779C1.12808 17.3853 1.71448 18.364 2.49794 19.2811L11.2107 29.6307C11.4077 29.865 11.6965 30 12.0003 30C12.3042 30 12.593 29.8651 12.79 29.6307L21.5003 19.2839C22.2873 18.3615 22.8729 17.3839 23.2387 16.3846C24.6207 12.6892 24.1003 8.51396 21.8468 5.21607ZM21.2964 15.65C21.0143 16.421 20.5537 17.1832 19.9283 17.9164C19.9265 17.9181 19.9248 17.9199 19.9234 17.922L12.0003 27.3332L4.07243 17.9161C3.44733 17.1836 2.98677 16.4214 2.70188 15.643C1.56129 12.5923 1.99416 9.14021 3.86014 6.4091C5.73198 3.66926 8.69916 2.09789 12.0003 2.09789C15.3015 2.09789 18.2683 3.6692 20.1402 6.4091C22.0065 9.14021 22.4398 12.5923 21.2964 15.65Z" fill="#4EACFF"/>
<path d="M11.9999 6.22363C8.79727 6.22363 6.19141 8.85859 6.19141 12.0978C6.19141 15.337 8.79693 17.9719 11.9999 17.9719C15.2029 17.9719 17.8084 15.337 17.8084 12.0978C17.8084 8.85894 15.2026 6.22363 11.9999 6.22363ZM11.9999 15.874C9.94099 15.874 8.26586 14.1799 8.26586 12.0977C8.26586 10.0155 9.94099 8.32147 11.9999 8.32147C14.0588 8.32147 15.734 10.0155 15.734 12.0977C15.734 14.1799 14.0588 15.874 11.9999 15.874Z" fill="#4EACFF"/>
</svg>
