<svg width="221" height="14" viewBox="0 0 221 14" fill="none" xmlns="http://www.w3.org/2000/svg">
<path d="M9.8 0.579999V13H7.55V2.326H2.654V13H0.404V0.579999H9.8ZM20.3432 4.18V13H18.1472V5.8H16.6892C16.3532 5.8 16.1132 5.872 15.9692 6.016C15.8372 6.148 15.7472 6.406 15.6992 6.79C15.4232 8.878 15.1772 10.282 14.9612 11.002C14.5532 12.526 13.4672 13.222 11.7032 13.09L11.4872 11.452C11.9672 11.368 12.3092 11.254 12.5132 11.11C12.7172 10.966 12.8852 10.726 13.0172 10.39C13.2692 9.622 13.4852 8.29 13.6652 6.394C13.7372 5.65 13.9712 5.098 14.3672 4.738C14.7632 4.366 15.3512 4.18 16.1312 4.18H20.3432ZM23.0095 5.908L22.8115 4.36C24.3595 4.072 25.8235 3.928 27.2035 3.928C28.3435 3.928 29.1835 4.156 29.7235 4.612C30.2635 5.068 30.5335 5.866 30.5335 7.006V13H28.8055L28.5715 11.65C27.6475 12.682 26.5255 13.198 25.2055 13.198C24.3775 13.198 23.7055 12.976 23.1895 12.532C22.6735 12.076 22.4155 11.446 22.4155 10.642V9.742C22.4155 9.034 22.6435 8.488 23.0995 8.104C23.5555 7.72 24.1975 7.528 25.0255 7.528H28.3375V6.988C28.3255 6.484 28.2115 6.148 27.9955 5.98C27.7795 5.812 27.3535 5.728 26.7175 5.728C25.8055 5.728 24.5695 5.788 23.0095 5.908ZM24.5935 10.012V10.354C24.5935 10.738 24.6835 11.014 24.8635 11.182C25.0435 11.35 25.3375 11.434 25.7455 11.434C26.6215 11.434 27.4855 11.086 28.3375 10.39V9.022H25.5295C25.1815 9.034 24.9355 9.124 24.7915 9.292C24.6595 9.46 24.5935 9.7 24.5935 10.012ZM40.3529 5.908H37.3289V13H35.1689V5.908H32.1269V4.18H40.3529V5.908ZM50.1976 13H48.2356V7.906C48.2356 7.87 48.2656 7.432 48.3256 6.592H48.2716C48.1516 6.904 47.9356 7.3 47.6236 7.78L43.8256 13H42.0256V4.18H43.9696V9.328C43.9696 9.76 43.9456 10.174 43.8976 10.57H43.9516C44.1556 10.126 44.3716 9.754 44.5996 9.454L48.3976 4.18H50.1976V13ZM60.1107 5.908H57.0867V13H54.9267V5.908H51.8847V4.18H60.1107V5.908ZM67.2567 9.508H63.6567C63.7287 10.276 63.9387 10.792 64.2867 11.056C64.6467 11.308 65.2227 11.434 66.0147 11.434C66.9147 11.434 67.9707 11.362 69.1827 11.218L69.3807 12.622C68.5407 13.018 67.3287 13.216 65.7447 13.216C64.1487 13.216 63.0147 12.862 62.3427 12.154C61.6707 11.446 61.3347 10.252 61.3347 8.572C61.3347 6.856 61.6647 5.656 62.3247 4.972C62.9847 4.276 64.0767 3.928 65.6007 3.928C67.0047 3.928 68.0187 4.186 68.6427 4.702C69.2787 5.206 69.5967 5.968 69.5967 6.988C69.6207 8.668 68.8407 9.508 67.2567 9.508ZM63.6027 7.978H66.6447C67.1727 7.978 67.4367 7.636 67.4367 6.952C67.4367 6.472 67.3107 6.136 67.0587 5.944C66.8067 5.752 66.3507 5.656 65.6907 5.656C64.9107 5.656 64.3767 5.818 64.0887 6.142C63.8007 6.454 63.6387 7.066 63.6027 7.978ZM83.8438 4.18H85.9498C86.4658 4.18 86.7238 4.438 86.7238 4.954L87.0478 13H85.0498L84.7618 5.782H84.4738L82.7638 11.254C82.6318 11.71 82.3558 11.938 81.9358 11.938H80.5138C80.0818 11.938 79.7998 11.71 79.6678 11.254L77.9578 5.782H77.6878L77.4178 13H75.4378L75.7438 4.954C75.7438 4.438 76.0078 4.18 76.5358 4.18H78.6238C79.0558 4.18 79.3258 4.408 79.4338 4.864L80.8018 9.256C80.8858 9.484 80.9878 9.916 81.1078 10.552H81.3418C81.4498 10 81.5458 9.568 81.6298 9.256L82.9978 4.864C83.1298 4.408 83.4118 4.18 83.8438 4.18ZM94.9247 9.508H91.3247C91.3967 10.276 91.6067 10.792 91.9547 11.056C92.3147 11.308 92.8907 11.434 93.6827 11.434C94.5827 11.434 95.6387 11.362 96.8507 11.218L97.0487 12.622C96.2087 13.018 94.9967 13.216 93.4127 13.216C91.8167 13.216 90.6827 12.862 90.0107 12.154C89.3387 11.446 89.0027 10.252 89.0027 8.572C89.0027 6.856 89.3327 5.656 89.9927 4.972C90.6527 4.276 91.7447 3.928 93.2687 3.928C94.6727 3.928 95.6867 4.186 96.3107 4.702C96.9467 5.206 97.2647 5.968 97.2647 6.988C97.2887 8.668 96.5087 9.508 94.9247 9.508ZM91.2707 7.978H94.3127C94.8407 7.978 95.1047 7.636 95.1047 6.952C95.1047 6.472 94.9787 6.136 94.7267 5.944C94.4747 5.752 94.0187 5.656 93.3587 5.656C92.5787 5.656 92.0447 5.818 91.7567 6.142C91.4687 6.454 91.3067 7.066 91.2707 7.978ZM107.467 4.18V13H105.325V9.13H101.473V13H99.3127V4.18H101.473V7.528H105.325V4.18H107.467ZM112.089 7.348H113.727C115.179 7.348 116.175 7.558 116.715 7.978C117.267 8.386 117.543 9.142 117.543 10.246C117.543 11.338 117.279 12.088 116.751 12.496C116.235 12.904 115.353 13.108 114.105 13.108C112.365 13.108 111.015 13.072 110.055 13H109.983V4.18H112.089V7.348ZM112.089 11.47H113.727C114.351 11.47 114.771 11.386 114.987 11.218C115.215 11.038 115.329 10.684 115.329 10.156C115.329 9.652 115.221 9.31 115.005 9.13C114.789 8.95 114.363 8.86 113.727 8.86H112.089V11.47ZM131.733 4.18V13H119.457V4.18H121.563V11.326H124.623V4.18H126.567V11.326H129.627V4.18H131.733ZM139.784 9.508H136.184C136.256 10.276 136.466 10.792 136.814 11.056C137.174 11.308 137.75 11.434 138.542 11.434C139.442 11.434 140.498 11.362 141.71 11.218L141.908 12.622C141.068 13.018 139.856 13.216 138.272 13.216C136.676 13.216 135.542 12.862 134.87 12.154C134.198 11.446 133.862 10.252 133.862 8.572C133.862 6.856 134.192 5.656 134.852 4.972C135.512 4.276 136.604 3.928 138.128 3.928C139.532 3.928 140.546 4.186 141.17 4.702C141.806 5.206 142.124 5.968 142.124 6.988C142.148 8.668 141.368 9.508 139.784 9.508ZM136.13 7.978H139.172C139.7 7.978 139.964 7.636 139.964 6.952C139.964 6.472 139.838 6.136 139.586 5.944C139.334 5.752 138.878 5.656 138.218 5.656C137.438 5.656 136.904 5.818 136.616 6.142C136.328 6.454 136.166 7.066 136.13 7.978ZM156.281 4.18V13H154.139V9.13H150.287V13H148.127V4.18H150.287V7.528H154.139V4.18H156.281ZM158.941 5.908L158.743 4.36C160.291 4.072 161.755 3.928 163.135 3.928C164.275 3.928 165.115 4.156 165.655 4.612C166.195 5.068 166.465 5.866 166.465 7.006V13H164.737L164.503 11.65C163.579 12.682 162.457 13.198 161.137 13.198C160.309 13.198 159.637 12.976 159.121 12.532C158.605 12.076 158.347 11.446 158.347 10.642V9.742C158.347 9.034 158.575 8.488 159.031 8.104C159.487 7.72 160.129 7.528 160.957 7.528H164.269V6.988C164.257 6.484 164.143 6.148 163.927 5.98C163.711 5.812 163.285 5.728 162.649 5.728C161.737 5.728 160.501 5.788 158.941 5.908ZM160.525 10.012V10.354C160.525 10.738 160.615 11.014 160.795 11.182C160.975 11.35 161.269 11.434 161.677 11.434C162.553 11.434 163.417 11.086 164.269 10.39V9.022H161.461C161.113 9.034 160.867 9.124 160.723 9.292C160.591 9.46 160.525 9.7 160.525 10.012ZM176.789 4.18V13H174.593V5.8H173.135C172.799 5.8 172.559 5.872 172.415 6.016C172.283 6.148 172.193 6.406 172.145 6.79C171.869 8.878 171.623 10.282 171.407 11.002C170.999 12.526 169.913 13.222 168.149 13.09L167.933 11.452C168.413 11.368 168.755 11.254 168.959 11.11C169.163 10.966 169.331 10.726 169.463 10.39C169.715 9.622 169.931 8.29 170.111 6.394C170.183 5.65 170.417 5.098 170.813 4.738C171.209 4.366 171.797 4.18 172.577 4.18H176.789ZM179.905 4.99C180.565 4.282 181.687 3.928 183.271 3.928C184.855 3.928 185.977 4.282 186.637 4.99C187.297 5.698 187.627 6.898 187.627 8.59C187.627 10.282 187.297 11.482 186.637 12.19C185.989 12.886 184.867 13.234 183.271 13.234C181.687 13.234 180.565 12.886 179.905 12.19C179.245 11.482 178.915 10.282 178.915 8.59C178.915 6.898 179.245 5.698 179.905 4.99ZM184.909 6.286C184.621 5.878 184.075 5.674 183.271 5.674C182.467 5.674 181.921 5.878 181.633 6.286C181.345 6.682 181.201 7.45 181.201 8.59C181.201 9.718 181.345 10.486 181.633 10.894C181.921 11.29 182.467 11.488 183.271 11.488C184.075 11.488 184.621 11.29 184.909 10.894C185.209 10.486 185.359 9.718 185.359 8.59C185.359 7.45 185.209 6.682 184.909 6.286ZM189.698 13V6.142C189.698 4.774 190.412 4.09 191.84 4.09C194.12 4.09 195.746 4.156 196.718 4.288L196.628 5.818H192.776C192.464 5.818 192.236 5.89 192.092 6.034C191.948 6.178 191.876 6.412 191.876 6.736V13H189.698ZM198.784 4.99C199.444 4.282 200.566 3.928 202.15 3.928C203.734 3.928 204.856 4.282 205.516 4.99C206.176 5.698 206.506 6.898 206.506 8.59C206.506 10.282 206.176 11.482 205.516 12.19C204.868 12.886 203.746 13.234 202.15 13.234C200.566 13.234 199.444 12.886 198.784 12.19C198.124 11.482 197.794 10.282 197.794 8.59C197.794 6.898 198.124 5.698 198.784 4.99ZM203.788 6.286C203.5 5.878 202.954 5.674 202.15 5.674C201.346 5.674 200.8 5.878 200.512 6.286C200.224 6.682 200.08 7.45 200.08 8.59C200.08 9.718 200.224 10.486 200.512 10.894C200.8 11.29 201.346 11.488 202.15 11.488C202.954 11.488 203.5 11.29 203.788 10.894C204.088 10.486 204.238 9.718 204.238 8.59C204.238 7.45 204.088 6.682 203.788 6.286ZM214.427 8.428V8.482C215.219 8.542 215.789 8.764 216.137 9.148C216.485 9.532 216.659 10.09 216.659 10.822C216.659 11.71 216.383 12.316 215.831 12.64C215.291 12.964 214.361 13.126 213.041 13.126C211.169 13.126 209.693 13.09 208.613 13.018V4.18C209.573 4.108 210.881 4.072 212.537 4.072C213.965 4.072 214.949 4.24 215.489 4.576C216.041 4.9 216.317 5.518 216.317 6.43C216.317 7.066 216.167 7.546 215.867 7.87C215.567 8.194 215.087 8.38 214.427 8.428ZM210.665 7.744H212.609C213.233 7.744 213.665 7.666 213.905 7.51C214.157 7.354 214.283 7.066 214.283 6.646C214.283 6.274 214.151 6.022 213.887 5.89C213.623 5.746 213.143 5.674 212.447 5.674H210.665V7.744ZM210.665 11.506H212.681C213.353 11.506 213.815 11.428 214.067 11.272C214.331 11.116 214.463 10.81 214.463 10.354C214.463 9.91 214.325 9.604 214.049 9.436C213.785 9.256 213.305 9.166 212.609 9.166H210.665V11.506ZM219.297 10.534H219.945C220.245 10.534 220.449 10.594 220.557 10.714C220.677 10.822 220.737 11.02 220.737 11.308V12.226C220.737 12.514 220.677 12.718 220.557 12.838C220.449 12.946 220.245 13 219.945 13H219.297C218.997 13 218.787 12.946 218.667 12.838C218.559 12.718 218.505 12.514 218.505 12.226V11.308C218.505 11.02 218.559 10.822 218.667 10.714C218.787 10.594 218.997 10.534 219.297 10.534Z" fill="black"/>
</svg>
