<svg width="52" height="62" viewBox="0 0 52 62" fill="none" xmlns="http://www.w3.org/2000/svg">
<path d="M50.6335 36.1667H43.4001V1.03333C43.4001 0.462675 42.9374 0 42.3668 0H9.30012C8.72946 0 8.26679 0.462675 8.26679 1.03333V36.1667H1.03346C0.751744 36.1667 0.482173 36.2816 0.28726 36.4851C-0.107602 36.8971 -0.0936519 37.5512 0.31839 37.9461L25.1184 61.7127C25.3108 61.8971 25.567 62 25.8335 62C26.0999 62 26.3562 61.8971 26.5485 61.7127L51.3485 37.9461C51.552 37.7512 51.6669 37.4816 51.6669 37.1999C51.6668 36.6292 51.2041 36.1667 50.6335 36.1667ZM25.8335 59.5355L3.60439 38.2333H9.30012C9.87078 38.2333 10.3335 37.7707 10.3335 37.2V2.06667H41.3335V37.2C41.3335 37.7707 41.7961 38.2333 42.3668 38.2333H48.0625L25.8335 59.5355Z" fill="white"/>
<path d="M19.8516 37V19.8203H26.332C27.4727 19.8203 28.3438 19.875 28.9453 19.9844C29.7891 20.125 30.4961 20.3945 31.0664 20.793C31.6367 21.1836 32.0938 21.7344 32.4375 22.4453C32.7891 23.1562 32.9648 23.9375 32.9648 24.7891C32.9648 26.25 32.5 27.4883 31.5703 28.5039C30.6406 29.5117 28.9609 30.0156 26.5312 30.0156H22.125V37H19.8516ZM22.125 27.9883H26.5664C28.0352 27.9883 29.0781 27.7148 29.6953 27.168C30.3125 26.6211 30.6211 25.8516 30.6211 24.8594C30.6211 24.1406 30.4375 23.5273 30.0703 23.0195C29.7109 22.5039 29.2344 22.1641 28.6406 22C28.2578 21.8984 27.5508 21.8477 26.5195 21.8477H22.125V27.9883Z" fill="white"/>
<path d="M14.4671 4.13379H12.4004V6.20046H14.4671V4.13379Z" fill="white"/>
<path d="M18.5999 4.13379H16.5332V6.20046H18.5999V4.13379Z" fill="white"/>
<path d="M22.7327 4.13379H20.666V6.20046H22.7327V4.13379Z" fill="white"/>
<path d="M26.8674 4.13379H24.8008V6.20046H26.8674V4.13379Z" fill="white"/>
<path d="M31.0003 4.13379H28.9336V6.20046H31.0003V4.13379Z" fill="white"/>
<path d="M35.1331 4.13379H33.0664V6.20046H35.1331V4.13379Z" fill="white"/>
<path d="M39.2659 4.13379H37.1992V6.20046H39.2659V4.13379Z" fill="white"/>
</svg>
