<svg width="33" height="30" viewBox="0 0 33 30" fill="none" xmlns="http://www.w3.org/2000/svg">
<path d="M32.3861 12.666C32.2736 12.4264 32.0333 12.2731 31.7675 12.2731H29.7466C28.4617 5.30045 22.339 0 15.0003 0C6.72965 0 0 6.72965 0 15.0003C0 23.271 6.72896 30 15.0003 30C20.3381 30 25.3161 27.1271 27.9915 22.504C28.3685 21.8515 28.1462 21.0182 27.493 20.6405C26.8413 20.2628 26.0072 20.4851 25.6309 21.1376C23.4409 24.9219 19.3673 27.2735 15.0003 27.2735C8.23341 27.2735 2.72721 21.768 2.72721 15.0017C2.72721 8.2341 8.23341 2.72859 15.0003 2.72859C20.829 2.72859 25.7124 6.81664 26.9566 12.2738H24.9516C24.6857 12.2738 24.4462 12.4271 24.3329 12.6667C24.2204 12.9063 24.257 13.1887 24.4268 13.3923L27.8362 17.4831C27.966 17.6385 28.1572 17.7282 28.3602 17.7282C28.5625 17.7282 28.7545 17.6378 28.8836 17.4831L32.2929 13.3923C32.4628 13.188 32.4987 12.9056 32.3861 12.666Z" fill="#4EACFF"/>
<path d="M14.9994 3.40918C14.2462 3.40918 13.6358 4.01952 13.6358 4.77278V13.0469C13.0193 13.4791 12.6133 14.1917 12.6133 15.0009C12.6133 16.3168 13.6841 17.3877 15.0001 17.3877C15.3605 17.3877 15.7002 17.3014 16.0068 17.1571L20.75 19.8946C20.9654 20.0196 21.1988 20.0783 21.4308 20.0783C21.9017 20.0783 22.3601 19.8339 22.6128 19.3962C22.9891 18.7451 22.7661 17.9103 22.1129 17.5341L17.3648 14.7923C17.3013 14.0715 16.9264 13.4419 16.3644 13.0483V4.77278C16.363 4.02021 15.752 3.40918 14.9994 3.40918ZM14.9994 16.0227C14.4353 16.0227 13.9769 15.5636 13.9769 15.0009C13.9769 14.4375 14.436 13.9783 14.9994 13.9783C15.5628 13.9783 16.0219 14.4375 16.0219 15.0009C16.0219 15.5636 15.5628 16.0227 14.9994 16.0227Z" fill="#4EACFF"/>
</svg>
